<?xml version="1.0" encoding="utf-8"?>
<svg width="1920" height="1080" viewBox="0 0 1920 1080" fill="none" xmlns="http://www.w3.org/2000/svg">
  <g>
    <rect width="1920" height="1080" fill="#CE1616" fill-rule="evenodd" />
    <path d="M0 1.75L19.635 1.75L19.635 5.28497L11.865 5.28497L11.865 26.25L7.73499 26.25L7.73499 5.28497L0 5.28497L0 1.75ZM35.07 15.75C35.07 14.3033 34.6733 13.1658 33.88 12.3375C33.0867 11.5092 31.99 11.095 30.59 11.095C28.9333 11.1183 27.6325 11.7017 26.6875 12.845C25.7425 13.9883 25.27 15.4117 25.27 17.115L24.15 17.115C24.15 14.805 24.4767 12.95 25.13 11.55C25.7833 10.15 26.7108 9.12915 27.9125 8.48749C29.1142 7.84583 30.5317 7.52502 32.165 7.52502C33.6117 7.52502 34.8542 7.81665 35.8925 8.40002C36.9308 8.98334 37.7242 9.80585 38.2725 10.8675C38.8208 11.9291 39.095 13.2067 39.095 14.7L39.095 26.25L35.07 26.25L35.07 15.75ZM21.245 0.280029L25.27 0.280029L25.27 26.25L21.245 26.25L21.245 0.280029ZM57.365 15.61C57.3183 14.56 57.0792 13.6675 56.6475 12.9325C56.2158 12.1975 55.615 11.6259 54.845 11.2175C54.075 10.8091 53.1883 10.605 52.185 10.605C51.065 10.605 50.0908 10.8617 49.2625 11.375C48.4342 11.8883 47.7867 12.6058 47.32 13.5275C46.8533 14.4492 46.62 15.5283 46.62 16.765C46.62 18.095 46.8708 19.25 47.3725 20.23C47.8742 21.21 48.5742 21.9683 49.4725 22.505C50.3708 23.0417 51.4033 23.31 52.57 23.31C54.6467 23.31 56.3967 22.575 57.82 21.105L59.955 23.24C59.045 24.2433 57.9367 25.0192 56.63 25.5675C55.3233 26.1158 53.865 26.39 52.255 26.39C50.3417 26.39 48.6733 25.9933 47.25 25.2C45.8267 24.4067 44.7183 23.3042 43.925 21.8925C43.1317 20.4808 42.735 18.8417 42.735 16.975C42.735 15.1083 43.1317 13.4692 43.925 12.0575C44.7183 10.6458 45.8267 9.54333 47.25 8.75C48.6733 7.95667 50.3067 7.54834 52.15 7.52502C54.3433 7.52502 56.105 7.97418 57.435 8.8725C58.765 9.77081 59.71 11.0367 60.27 12.67C60.83 14.3033 61.0284 16.24 60.865 18.48L45.99 18.48L45.99 15.61L57.365 15.61ZM88.06 15.75C88.06 14.28 87.675 13.1309 86.905 12.3025C86.135 11.4742 85.0616 11.06 83.685 11.06C82.075 11.1067 80.8091 11.7017 79.8875 12.845C78.9658 13.9883 78.505 15.4 78.505 17.08L77.385 17.08C77.385 14.7933 77.7058 12.95 78.3475 11.55C78.9892 10.15 79.8992 9.12915 81.0775 8.48749C82.2558 7.84583 83.65 7.52502 85.26 7.52502C86.6833 7.52502 87.9025 7.81665 88.9175 8.40002C89.9325 8.98334 90.7142 9.80585 91.2625 10.8675C91.8108 11.9291 92.085 13.2067 92.085 14.7L92.085 26.25L88.06 26.25L88.06 15.75ZM101.605 15.75C101.605 14.28 101.214 13.1309 100.432 12.3025C99.6508 11.4742 98.5717 11.06 97.195 11.06C95.6083 11.1067 94.36 11.7017 93.45 12.845C92.54 13.9883 92.085 15.4 92.085 17.08L90.93 17.08C90.93 14.7933 91.2508 12.95 91.8925 11.55C92.5342 10.15 93.4442 9.12915 94.6225 8.48749C95.8008 7.84583 97.195 7.52502 98.805 7.52502C100.228 7.52502 101.448 7.81665 102.462 8.40002C103.477 8.98334 104.259 9.80585 104.807 10.8675C105.356 11.9291 105.63 13.2067 105.63 14.7L105.63 26.25L101.605 26.25L101.605 15.75ZM74.515 7.66498L78.505 7.66498L78.505 26.25L74.515 26.25L74.515 7.66498ZM119 7.52502C120.913 7.52502 122.599 7.92169 124.057 8.71503C125.516 9.50836 126.653 10.6108 127.47 12.0225C128.287 13.4341 128.695 15.0734 128.695 16.94C128.695 18.8066 128.287 20.4517 127.47 21.875C126.653 23.2983 125.516 24.4067 124.057 25.2C122.599 25.9933 120.913 26.39 119 26.39C117.087 26.39 115.395 25.9933 113.925 25.2C112.455 24.4067 111.312 23.2983 110.495 21.875C109.678 20.4517 109.27 18.8066 109.27 16.94C109.27 15.0734 109.678 13.4341 110.495 12.0225C111.312 10.6108 112.455 9.50836 113.925 8.71503C115.395 7.92169 117.087 7.52502 119 7.52502L119 7.52502ZM119 10.78C117.88 10.78 116.888 11.0425 116.025 11.5675C115.162 12.0925 114.491 12.8217 114.013 13.755C113.534 14.6884 113.295 15.7617 113.295 16.975C113.295 18.2117 113.534 19.2967 114.013 20.23C114.491 21.1633 115.162 21.8925 116.025 22.4175C116.888 22.9425 117.88 23.205 119 23.205C120.12 23.205 121.106 22.9425 121.957 22.4175C122.809 21.8925 123.474 21.1633 123.953 20.23C124.431 19.2967 124.67 18.2117 124.67 16.975C124.67 15.7617 124.431 14.6884 123.953 13.755C123.474 12.8217 122.809 12.0925 121.957 11.5675C121.106 11.0425 120.12 10.78 119 10.78L119 10.78ZM143.5 12.18C142.683 11.69 141.791 11.2992 140.823 11.0075C139.854 10.7158 138.962 10.57 138.145 10.57C137.352 10.57 136.698 10.7217 136.185 11.025C135.672 11.3283 135.415 11.83 135.415 12.53C135.415 13.1133 135.654 13.5742 136.133 13.9125C136.611 14.2509 137.223 14.5367 137.97 14.77C138.717 15.0034 139.51 15.2484 140.35 15.505C141.19 15.7617 141.989 16.0942 142.747 16.5025C143.506 16.9108 144.118 17.465 144.585 18.165C145.052 18.865 145.285 19.7867 145.285 20.93C145.285 22.19 144.953 23.2225 144.288 24.0275C143.622 24.8325 142.747 25.4275 141.663 25.8125C140.578 26.1975 139.405 26.39 138.145 26.39C136.792 26.39 135.438 26.1683 134.085 25.725C132.732 25.2817 131.588 24.64 130.655 23.8L132.09 21.07C132.907 21.7933 133.898 22.3592 135.065 22.7675C136.232 23.1758 137.317 23.38 138.32 23.38C138.903 23.38 139.422 23.3042 139.878 23.1525C140.333 23.0009 140.694 22.7733 140.962 22.47C141.231 22.1667 141.365 21.77 141.365 21.28C141.365 20.6266 141.132 20.1133 140.665 19.74C140.198 19.3667 139.592 19.0575 138.845 18.8125C138.098 18.5675 137.305 18.3225 136.465 18.0775C135.625 17.8325 134.837 17.5117 134.102 17.115C133.367 16.7183 132.767 16.1816 132.3 15.505C131.833 14.8283 131.6 13.93 131.6 12.81C131.6 11.55 131.927 10.5292 132.58 9.7475C133.233 8.96582 134.079 8.39417 135.117 8.03247C136.156 7.67084 137.27 7.48999 138.46 7.48999C139.627 7.48999 140.793 7.65332 141.96 7.97998C143.127 8.30664 144.13 8.76166 144.97 9.34497L143.5 12.18ZM154.07 20.37C154.07 21.3734 154.245 22.0558 154.595 22.4175C154.945 22.7792 155.435 22.96 156.065 22.96C156.485 22.96 156.922 22.89 157.378 22.75C157.833 22.61 158.328 22.4 158.865 22.12L159.88 25.025C159.157 25.4683 158.41 25.8125 157.64 26.0575C156.87 26.3025 156.088 26.425 155.295 26.425C154.362 26.425 153.498 26.2441 152.705 25.8825C151.912 25.5208 151.276 24.9434 150.797 24.15C150.319 23.3567 150.08 22.33 150.08 21.07L150.08 3.255L154.07 3.255L154.07 20.37ZM147.455 8.33002L159.565 8.33002L159.565 11.2L147.455 11.2L147.455 8.33002ZM179.13 17.955C177.823 17.955 176.855 18.1533 176.225 18.55C175.595 18.9467 175.28 19.6 175.28 20.51C175.28 21.3734 175.601 22.0616 176.242 22.575C176.884 23.0883 177.765 23.345 178.885 23.345C179.888 23.345 180.787 23.17 181.58 22.82C182.373 22.47 183.003 21.9975 183.47 21.4025C183.937 20.8075 184.182 20.1367 184.205 19.39L184.975 22.785C184.392 23.9984 183.505 24.9083 182.315 25.515C181.125 26.1216 179.702 26.425 178.045 26.425C176.715 26.425 175.56 26.1683 174.58 25.655C173.6 25.1417 172.842 24.4475 172.305 23.5725C171.768 22.6975 171.5 21.7233 171.5 20.65C171.5 18.97 172.112 17.6284 173.337 16.625C174.563 15.6216 176.295 15.1083 178.535 15.085L184.695 15.085L184.695 17.955L179.13 17.955ZM184.17 14.455C184.17 13.2417 183.797 12.2967 183.05 11.62C182.303 10.9434 181.195 10.605 179.725 10.605C178.838 10.605 177.934 10.7683 177.012 11.095C176.091 11.4217 175.163 11.9 174.23 12.53L172.585 9.94C173.448 9.40332 174.265 8.96002 175.035 8.60999C175.805 8.26001 176.628 7.99164 177.503 7.80499C178.378 7.61835 179.41 7.52502 180.6 7.52502C183.003 7.52502 184.852 8.10248 186.147 9.25751C187.443 10.4125 188.102 12.005 188.125 14.035L188.16 26.25L184.205 26.25L184.17 14.455ZM200.655 7.48999C202.382 7.48999 203.846 7.86914 205.047 8.6275C206.249 9.38586 207.171 10.4708 207.813 11.8825C208.454 13.2942 208.763 14.98 208.74 16.94C208.763 18.9 208.46 20.5917 207.83 22.015C207.2 23.4384 206.284 24.5292 205.082 25.2875C203.881 26.0458 202.428 26.425 200.725 26.425C198.952 26.425 197.394 26.0225 196.052 25.2175C194.711 24.4125 193.667 23.2925 192.92 21.8575C192.173 20.4225 191.8 18.7717 191.8 16.905C191.8 15.0383 192.173 13.3992 192.92 11.9875C193.667 10.5758 194.705 9.47333 196.035 8.67999C197.365 7.88666 198.905 7.48999 200.655 7.48999L200.655 7.48999ZM201.565 10.745C200.445 10.745 199.453 11.0133 198.59 11.55C197.727 12.0867 197.056 12.8275 196.577 13.7725C196.099 14.7175 195.848 15.7967 195.825 17.01C195.848 18.2233 196.099 19.2967 196.577 20.23C197.056 21.1633 197.727 21.8983 198.59 22.435C199.453 22.9717 200.445 23.24 201.565 23.24C202.685 23.24 203.677 22.9717 204.54 22.435C205.403 21.8983 206.074 21.1633 206.552 20.23C207.031 19.2967 207.27 18.2233 207.27 17.01C207.27 15.7733 207.031 14.6884 206.552 13.755C206.074 12.8217 205.403 12.0867 204.54 11.55C203.677 11.0133 202.685 10.745 201.565 10.745L201.565 10.745ZM207.27 0.280029L211.295 0.280029L211.295 26.25L207.27 26.25L207.27 0.280029ZM214.48 7.66498L218.68 7.66498L223.86 22.54L228.97 7.66498L232.995 7.66498L225.855 26.25L221.69 26.25L214.48 7.66498ZM241.36 17.955C240.053 17.955 239.085 18.1533 238.455 18.55C237.825 18.9467 237.51 19.6 237.51 20.51C237.51 21.3734 237.831 22.0616 238.472 22.575C239.114 23.0883 239.995 23.345 241.115 23.345C242.118 23.345 243.017 23.17 243.81 22.82C244.603 22.47 245.233 21.9975 245.7 21.4025C246.167 20.8075 246.412 20.1367 246.435 19.39L247.205 22.785C246.622 23.9984 245.735 24.9083 244.545 25.515C243.355 26.1216 241.932 26.425 240.275 26.425C238.945 26.425 237.79 26.1683 236.81 25.655C235.83 25.1417 235.072 24.4475 234.535 23.5725C233.998 22.6975 233.73 21.7233 233.73 20.65C233.73 18.97 234.342 17.6284 235.568 16.625C236.792 15.6216 238.525 15.1083 240.765 15.085L246.925 15.085L246.925 17.955L241.36 17.955ZM246.4 14.455C246.4 13.2417 246.027 12.2967 245.28 11.62C244.533 10.9434 243.425 10.605 241.955 10.605C241.068 10.605 240.164 10.7683 239.242 11.095C238.321 11.4217 237.393 11.9 236.46 12.53L234.815 9.94C235.678 9.40332 236.495 8.96002 237.265 8.60999C238.035 8.26001 238.857 7.99164 239.732 7.80499C240.607 7.61835 241.64 7.52502 242.83 7.52502C245.233 7.52502 247.082 8.10248 248.378 9.25751C249.672 10.4125 250.332 12.005 250.355 14.035L250.39 26.25L246.435 26.25L246.4 14.455ZM269.57 15.75C269.57 14.3033 269.173 13.1658 268.38 12.3375C267.587 11.5092 266.49 11.095 265.09 11.095C263.433 11.1183 262.132 11.7017 261.188 12.845C260.242 13.9883 259.77 15.4117 259.77 17.115L258.65 17.115C258.65 14.805 258.977 12.95 259.63 11.55C260.283 10.15 261.211 9.12915 262.412 8.48749C263.614 7.84583 265.032 7.52502 266.665 7.52502C268.112 7.52502 269.354 7.81665 270.392 8.40002C271.431 8.98334 272.224 9.80585 272.772 10.8675C273.321 11.9291 273.595 13.2067 273.595 14.7L273.595 26.25L269.57 26.25L269.57 15.75ZM255.78 7.66498L259.805 7.66498L259.805 26.25L255.78 26.25L255.78 7.66498ZM292.11 12.985C291.457 12.3083 290.687 11.7833 289.8 11.41C288.913 11.0367 287.91 10.85 286.79 10.85C285.717 10.85 284.76 11.1067 283.92 11.62C283.08 12.1334 282.427 12.8508 281.96 13.7725C281.493 14.6942 281.26 15.7617 281.26 16.975C281.26 18.1884 281.493 19.2559 281.96 20.1775C282.427 21.0992 283.08 21.8225 283.92 22.3475C284.76 22.8725 285.717 23.135 286.79 23.135C287.957 23.135 289.007 22.9425 289.94 22.5575C290.873 22.1725 291.655 21.6067 292.285 20.86L294.525 23.065C293.685 24.115 292.594 24.9316 291.252 25.515C289.911 26.0983 288.365 26.39 286.615 26.39C284.772 26.39 283.144 25.9933 281.732 25.2C280.321 24.4067 279.218 23.3042 278.425 21.8925C277.632 20.4808 277.235 18.8417 277.235 16.975C277.235 15.1083 277.632 13.4692 278.425 12.0575C279.218 10.6458 280.321 9.53748 281.732 8.73248C283.144 7.92749 284.772 7.52502 286.615 7.52502C288.295 7.52502 289.782 7.77582 291.078 8.27753C292.372 8.77917 293.452 9.48499 294.315 10.395L292.11 12.985ZM310.87 15.61C310.823 14.56 310.584 13.6675 310.152 12.9325C309.721 12.1975 309.12 11.6259 308.35 11.2175C307.58 10.8091 306.693 10.605 305.69 10.605C304.57 10.605 303.596 10.8617 302.767 11.375C301.939 11.8883 301.292 12.6058 300.825 13.5275C300.358 14.4492 300.125 15.5283 300.125 16.765C300.125 18.095 300.376 19.25 300.877 20.23C301.379 21.21 302.079 21.9683 302.977 22.505C303.876 23.0417 304.908 23.31 306.075 23.31C308.152 23.31 309.902 22.575 311.325 21.105L313.46 23.24C312.55 24.2433 311.442 25.0192 310.135 25.5675C308.828 26.1158 307.37 26.39 305.76 26.39C303.847 26.39 302.178 25.9933 300.755 25.2C299.332 24.4067 298.223 23.3042 297.43 21.8925C296.637 20.4808 296.24 18.8417 296.24 16.975C296.24 15.1083 296.637 13.4692 297.43 12.0575C298.223 10.6458 299.332 9.54333 300.755 8.75C302.178 7.95667 303.812 7.54834 305.655 7.52502C307.848 7.52502 309.61 7.97418 310.94 8.8725C312.27 9.77081 313.215 11.0367 313.775 12.67C314.335 14.3033 314.533 16.24 314.37 18.48L299.495 18.48L299.495 15.61L310.87 15.61ZM325.675 7.48999C327.402 7.48999 328.866 7.86914 330.068 8.6275C331.269 9.38586 332.191 10.4708 332.832 11.8825C333.474 13.2942 333.783 14.98 333.76 16.94C333.783 18.9 333.48 20.5917 332.85 22.015C332.22 23.4384 331.304 24.5292 330.102 25.2875C328.901 26.0458 327.448 26.425 325.745 26.425C323.972 26.425 322.414 26.0225 321.073 25.2175C319.731 24.4125 318.687 23.2925 317.94 21.8575C317.193 20.4225 316.82 18.7717 316.82 16.905C316.82 15.0383 317.193 13.3992 317.94 11.9875C318.687 10.5758 319.725 9.47333 321.055 8.67999C322.385 7.88666 323.925 7.48999 325.675 7.48999L325.675 7.48999ZM326.585 10.745C325.465 10.745 324.473 11.0133 323.61 11.55C322.747 12.0867 322.076 12.8275 321.597 13.7725C321.119 14.7175 320.868 15.7967 320.845 17.01C320.868 18.2233 321.119 19.2967 321.597 20.23C322.076 21.1633 322.747 21.8983 323.61 22.435C324.473 22.9717 325.465 23.24 326.585 23.24C327.705 23.24 328.697 22.9717 329.56 22.435C330.423 21.8983 331.094 21.1633 331.573 20.23C332.051 19.2967 332.29 18.2233 332.29 17.01C332.29 15.7733 332.051 14.6884 331.573 13.755C331.094 12.8217 330.423 12.0867 329.56 11.55C328.697 11.0133 327.705 10.745 326.585 10.745L326.585 10.745ZM332.29 0.280029L336.315 0.280029L336.315 26.25L332.29 26.25L332.29 0.280029ZM365.015 12.985C364.362 12.3083 363.592 11.7833 362.705 11.41C361.818 11.0367 360.815 10.85 359.695 10.85C358.622 10.85 357.665 11.1067 356.825 11.62C355.985 12.1334 355.332 12.8508 354.865 13.7725C354.398 14.6942 354.165 15.7617 354.165 16.975C354.165 18.1884 354.398 19.2559 354.865 20.1775C355.332 21.0992 355.985 21.8225 356.825 22.3475C357.665 22.8725 358.622 23.135 359.695 23.135C360.862 23.135 361.912 22.9425 362.845 22.5575C363.778 22.1725 364.56 21.6067 365.19 20.86L367.43 23.065C366.59 24.115 365.499 24.9316 364.157 25.515C362.816 26.0983 361.27 26.39 359.52 26.39C357.677 26.39 356.049 25.9933 354.637 25.2C353.226 24.4067 352.123 23.3042 351.33 21.8925C350.537 20.4808 350.14 18.8417 350.14 16.975C350.14 15.1083 350.537 13.4692 351.33 12.0575C352.123 10.6458 353.226 9.53748 354.637 8.73248C356.049 7.92749 357.677 7.52502 359.52 7.52502C361.2 7.52502 362.688 7.77582 363.982 8.27753C365.277 8.77917 366.357 9.48499 367.22 10.395L365.015 12.985ZM385.63 15.75C385.63 14.3033 385.233 13.1658 384.44 12.3375C383.647 11.5092 382.55 11.095 381.15 11.095C379.493 11.1183 378.193 11.7017 377.247 12.845C376.302 13.9883 375.83 15.4117 375.83 17.115L374.71 17.115C374.71 14.805 375.037 12.95 375.69 11.55C376.343 10.15 377.271 9.12915 378.472 8.48749C379.674 7.84583 381.092 7.52502 382.725 7.52502C384.172 7.52502 385.414 7.81665 386.452 8.40002C387.491 8.98334 388.284 9.80585 388.832 10.8675C389.381 11.9291 389.655 13.2067 389.655 14.7L389.655 26.25L385.63 26.25L385.63 15.75ZM371.805 0.280029L375.83 0.280029L375.83 26.25L371.805 26.25L371.805 0.280029ZM401.135 17.955C399.828 17.955 398.86 18.1533 398.23 18.55C397.6 18.9467 397.285 19.6 397.285 20.51C397.285 21.3734 397.606 22.0616 398.247 22.575C398.889 23.0883 399.77 23.345 400.89 23.345C401.893 23.345 402.792 23.17 403.585 22.82C404.378 22.47 405.008 21.9975 405.475 21.4025C405.942 20.8075 406.187 20.1367 406.21 19.39L406.98 22.785C406.397 23.9984 405.51 24.9083 404.32 25.515C403.13 26.1216 401.707 26.425 400.05 26.425C398.72 26.425 397.565 26.1683 396.585 25.655C395.605 25.1417 394.847 24.4475 394.31 23.5725C393.773 22.6975 393.505 21.7233 393.505 20.65C393.505 18.97 394.117 17.6284 395.342 16.625C396.568 15.6216 398.3 15.1083 400.54 15.085L406.7 15.085L406.7 17.955L401.135 17.955ZM406.175 14.455C406.175 13.2417 405.802 12.2967 405.055 11.62C404.308 10.9434 403.2 10.605 401.73 10.605C400.843 10.605 399.939 10.7683 399.017 11.095C398.096 11.4217 397.168 11.9 396.235 12.53L394.59 9.94C395.453 9.40332 396.27 8.96002 397.04 8.60999C397.81 8.26001 398.632 7.99164 399.507 7.80499C400.382 7.61835 401.415 7.52502 402.605 7.52502C405.008 7.52502 406.857 8.10248 408.152 9.25751C409.448 10.4125 410.107 12.005 410.13 14.035L410.165 26.25L406.21 26.25L406.175 14.455ZM426.02 11.165C424.69 11.095 423.541 11.3225 422.573 11.8475C421.604 12.3725 420.857 13.1017 420.333 14.035C419.807 14.9683 419.545 16.0417 419.545 17.255L418.425 17.115C418.425 15.0383 418.728 13.2883 419.335 11.865C419.942 10.4417 420.817 9.36249 421.96 8.6275C423.103 7.89252 424.457 7.52502 426.02 7.52502L426.02 11.165ZM415.555 7.66498L419.58 7.66498L419.58 26.25L415.555 26.25L415.555 7.66498ZM434.7 17.955C433.393 17.955 432.425 18.1533 431.795 18.55C431.165 18.9467 430.85 19.6 430.85 20.51C430.85 21.3734 431.171 22.0616 431.813 22.575C432.454 23.0883 433.335 23.345 434.455 23.345C435.458 23.345 436.357 23.17 437.15 22.82C437.943 22.47 438.573 21.9975 439.04 21.4025C439.507 20.8075 439.752 20.1367 439.775 19.39L440.545 22.785C439.962 23.9984 439.075 24.9083 437.885 25.515C436.695 26.1216 435.272 26.425 433.615 26.425C432.285 26.425 431.13 26.1683 430.15 25.655C429.17 25.1417 428.412 24.4475 427.875 23.5725C427.338 22.6975 427.07 21.7233 427.07 20.65C427.07 18.97 427.682 17.6284 428.907 16.625C430.132 15.6216 431.865 15.1083 434.105 15.085L440.265 15.085L440.265 17.955L434.7 17.955ZM439.74 14.455C439.74 13.2417 439.367 12.2967 438.62 11.62C437.873 10.9434 436.765 10.605 435.295 10.605C434.408 10.605 433.504 10.7683 432.583 11.095C431.661 11.4217 430.733 11.9 429.8 12.53L428.155 9.94C429.018 9.40332 429.835 8.96002 430.605 8.60999C431.375 8.26001 432.198 7.99164 433.073 7.80499C433.948 7.61835 434.98 7.52502 436.17 7.52502C438.573 7.52502 440.422 8.10248 441.717 9.25751C443.012 10.4125 443.672 12.005 443.695 14.035L443.73 26.25L439.775 26.25L439.74 14.455ZM462.245 12.985C461.592 12.3083 460.822 11.7833 459.935 11.41C459.048 11.0367 458.045 10.85 456.925 10.85C455.852 10.85 454.895 11.1067 454.055 11.62C453.215 12.1334 452.562 12.8508 452.095 13.7725C451.628 14.6942 451.395 15.7617 451.395 16.975C451.395 18.1884 451.628 19.2559 452.095 20.1775C452.562 21.0992 453.215 21.8225 454.055 22.3475C454.895 22.8725 455.852 23.135 456.925 23.135C458.092 23.135 459.142 22.9425 460.075 22.5575C461.008 22.1725 461.79 21.6067 462.42 20.86L464.66 23.065C463.82 24.115 462.729 24.9316 461.387 25.515C460.046 26.0983 458.5 26.39 456.75 26.39C454.907 26.39 453.279 25.9933 451.867 25.2C450.456 24.4067 449.353 23.3042 448.56 21.8925C447.767 20.4808 447.37 18.8417 447.37 16.975C447.37 15.1083 447.767 13.4692 448.56 12.0575C449.353 10.6458 450.456 9.53748 451.867 8.73248C453.279 7.92749 454.907 7.52502 456.75 7.52502C458.43 7.52502 459.917 7.77582 461.213 8.27753C462.508 8.77917 463.587 9.48499 464.45 10.395L462.245 12.985ZM473.585 20.37C473.585 21.3734 473.76 22.0558 474.11 22.4175C474.46 22.7792 474.95 22.96 475.58 22.96C476 22.96 476.438 22.89 476.892 22.75C477.347 22.61 477.843 22.4 478.38 22.12L479.395 25.025C478.672 25.4683 477.925 25.8125 477.155 26.0575C476.385 26.3025 475.603 26.425 474.81 26.425C473.877 26.425 473.013 26.2441 472.22 25.8825C471.427 25.5208 470.791 24.9434 470.313 24.15C469.834 23.3567 469.595 22.33 469.595 21.07L469.595 3.255L473.585 3.255L473.585 20.37ZM466.97 8.33002L479.08 8.33002L479.08 11.2L466.97 11.2L466.97 8.33002ZM495.775 15.61C495.728 14.56 495.489 13.6675 495.057 12.9325C494.626 12.1975 494.025 11.6259 493.255 11.2175C492.485 10.8091 491.598 10.605 490.595 10.605C489.475 10.605 488.501 10.8617 487.672 11.375C486.844 11.8883 486.197 12.6058 485.73 13.5275C485.263 14.4492 485.03 15.5283 485.03 16.765C485.03 18.095 485.281 19.25 485.782 20.23C486.284 21.21 486.984 21.9683 487.882 22.505C488.781 23.0417 489.813 23.31 490.98 23.31C493.057 23.31 494.807 22.575 496.23 21.105L498.365 23.24C497.455 24.2433 496.347 25.0192 495.04 25.5675C493.733 26.1158 492.275 26.39 490.665 26.39C488.752 26.39 487.083 25.9933 485.66 25.2C484.237 24.4067 483.128 23.3042 482.335 21.8925C481.542 20.4808 481.145 18.8417 481.145 16.975C481.145 15.1083 481.542 13.4692 482.335 12.0575C483.128 10.6458 484.237 9.54333 485.66 8.75C487.083 7.95667 488.717 7.54834 490.56 7.52502C492.753 7.52502 494.515 7.97418 495.845 8.8725C497.175 9.77081 498.12 11.0367 498.68 12.67C499.24 14.3033 499.438 16.24 499.275 18.48L484.4 18.48L484.4 15.61L495.775 15.61ZM513.94 11.165C512.61 11.095 511.461 11.3225 510.492 11.8475C509.524 12.3725 508.777 13.1017 508.252 14.035C507.727 14.9683 507.465 16.0417 507.465 17.255L506.345 17.115C506.345 15.0383 506.648 13.2883 507.255 11.865C507.862 10.4417 508.737 9.36249 509.88 8.6275C511.023 7.89252 512.377 7.52502 513.94 7.52502L513.94 11.165ZM503.475 7.66498L507.5 7.66498L507.5 26.25L503.475 26.25L503.475 7.66498ZM537.425 7.52502C539.198 7.52502 540.75 7.92169 542.08 8.71503C543.41 9.50836 544.448 10.6166 545.195 12.04C545.942 13.4633 546.315 15.12 546.315 17.01C546.315 18.8533 545.948 20.4808 545.212 21.8925C544.477 23.3042 543.451 24.4067 542.133 25.2C540.814 25.9933 539.268 26.39 537.495 26.39C535.792 26.39 534.339 26.0167 533.138 25.27C531.936 24.5233 531.02 23.4442 530.39 22.0325C529.76 20.6208 529.445 18.9467 529.445 17.01C529.445 15.0034 529.76 13.2942 530.39 11.8825C531.02 10.4708 531.936 9.39166 533.138 8.64502C534.339 7.89832 535.768 7.52502 537.425 7.52502L537.425 7.52502ZM536.585 10.71C535.488 10.71 534.508 10.9783 533.645 11.515C532.782 12.0517 532.111 12.7808 531.633 13.7025C531.154 14.6241 530.915 15.6917 530.915 16.905C530.915 18.1183 531.154 19.1975 531.633 20.1425C532.111 21.0875 532.782 21.8225 533.645 22.3475C534.508 22.8725 535.488 23.135 536.585 23.135C537.705 23.135 538.691 22.8667 539.542 22.33C540.394 21.7933 541.059 21.0583 541.537 20.125C542.016 19.1917 542.255 18.1183 542.255 16.905C542.255 15.715 542.016 14.6533 541.537 13.72C541.059 12.7867 540.394 12.0517 539.542 11.515C538.691 10.9783 537.705 10.71 536.585 10.71L536.585 10.71ZM526.89 7.66498L530.915 7.66498L530.915 33.04L526.89 33.04L526.89 7.66498ZM560.98 11.165C559.65 11.095 558.501 11.3225 557.532 11.8475C556.564 12.3725 555.817 13.1017 555.292 14.035C554.768 14.9683 554.505 16.0417 554.505 17.255L553.385 17.115C553.385 15.0383 553.688 13.2883 554.295 11.865C554.902 10.4417 555.777 9.36249 556.92 8.6275C558.063 7.89252 559.417 7.52502 560.98 7.52502L560.98 11.165ZM550.515 7.66498L554.54 7.66498L554.54 26.25L550.515 26.25L550.515 7.66498ZM572.285 7.52502C574.198 7.52502 575.884 7.92169 577.342 8.71503C578.801 9.50836 579.938 10.6108 580.755 12.0225C581.572 13.4341 581.98 15.0734 581.98 16.94C581.98 18.8066 581.572 20.4517 580.755 21.875C579.938 23.2983 578.801 24.4067 577.342 25.2C575.884 25.9933 574.198 26.39 572.285 26.39C570.372 26.39 568.68 25.9933 567.21 25.2C565.74 24.4067 564.597 23.2983 563.78 21.875C562.963 20.4517 562.555 18.8066 562.555 16.94C562.555 15.0734 562.963 13.4341 563.78 12.0225C564.597 10.6108 565.74 9.50836 567.21 8.71503C568.68 7.92169 570.372 7.52502 572.285 7.52502L572.285 7.52502ZM572.285 10.78C571.165 10.78 570.173 11.0425 569.31 11.5675C568.447 12.0925 567.776 12.8217 567.297 13.755C566.819 14.6884 566.58 15.7617 566.58 16.975C566.58 18.2117 566.819 19.2967 567.297 20.23C567.776 21.1633 568.447 21.8925 569.31 22.4175C570.173 22.9425 571.165 23.205 572.285 23.205C573.405 23.205 574.391 22.9425 575.242 22.4175C576.094 21.8925 576.759 21.1633 577.237 20.23C577.716 19.2967 577.955 18.2117 577.955 16.975C577.955 15.7617 577.716 14.6884 577.237 13.755C576.759 12.8217 576.094 12.0925 575.242 11.5675C574.391 11.0425 573.405 10.78 572.285 10.78L572.285 10.78ZM586.775 6.51001C586.775 5.03998 587.084 3.83252 587.702 2.88751C588.321 1.9425 589.12 1.24249 590.1 0.787476C591.08 0.33252 592.107 0.10498 593.18 0.10498C593.74 0.10498 594.306 0.180847 594.877 0.33252C595.449 0.484192 595.98 0.688354 596.47 0.945007L595.63 4.02502C595.303 3.88501 594.936 3.75085 594.527 3.6225C594.119 3.49414 593.705 3.42999 593.285 3.42999C592.842 3.42999 592.427 3.51752 592.042 3.6925C591.657 3.86749 591.348 4.14752 591.115 4.53247C590.882 4.91748 590.765 5.41333 590.765 6.02002L590.765 26.25L586.775 26.25L586.775 6.51001ZM584.325 8.33002L595.63 8.33002L595.63 11.2L584.325 11.2L584.325 8.33002ZM598.43 7.66498L602.42 7.66498L602.42 26.25L598.43 26.25L598.43 7.66498ZM600.425 0C601.102 0 601.662 0.22168 602.105 0.664978C602.548 1.10834 602.77 1.66833 602.77 2.34503C602.77 2.99835 602.548 3.55249 602.105 4.00751C601.662 4.46252 601.102 4.69 600.425 4.69C599.772 4.69 599.217 4.46252 598.762 4.00751C598.307 3.55249 598.08 2.99835 598.08 2.34503C598.08 1.66833 598.307 1.10834 598.762 0.664978C599.217 0.22168 599.772 0 600.425 0L600.425 0ZM608.545 0.280029L612.57 0.280029L612.57 26.25L608.545 26.25L608.545 0.280029ZM631.575 15.61C631.528 14.56 631.289 13.6675 630.857 12.9325C630.426 12.1975 629.825 11.6259 629.055 11.2175C628.285 10.8091 627.398 10.605 626.395 10.605C625.275 10.605 624.301 10.8617 623.472 11.375C622.644 11.8883 621.997 12.6058 621.53 13.5275C621.063 14.4492 620.83 15.5283 620.83 16.765C620.83 18.095 621.081 19.25 621.582 20.23C622.084 21.21 622.784 21.9683 623.682 22.505C624.581 23.0417 625.613 23.31 626.78 23.31C628.857 23.31 630.607 22.575 632.03 21.105L634.165 23.24C633.255 24.2433 632.147 25.0192 630.84 25.5675C629.533 26.1158 628.075 26.39 626.465 26.39C624.552 26.39 622.883 25.9933 621.46 25.2C620.037 24.4067 618.928 23.3042 618.135 21.8925C617.342 20.4808 616.945 18.8417 616.945 16.975C616.945 15.1083 617.342 13.4692 618.135 12.0575C618.928 10.6458 620.037 9.54333 621.46 8.75C622.883 7.95667 624.517 7.54834 626.36 7.52502C628.553 7.52502 630.315 7.97418 631.645 8.8725C632.975 9.77081 633.92 11.0367 634.48 12.67C635.04 14.3033 635.238 16.24 635.075 18.48L620.2 18.48L620.2 15.61L631.575 15.61ZM648.725 7.66498L652.715 7.66498L652.715 26.25L648.725 26.25L648.725 7.66498ZM650.72 0C651.397 0 651.957 0.22168 652.4 0.664978C652.843 1.10834 653.065 1.66833 653.065 2.34503C653.065 2.99835 652.843 3.55249 652.4 4.00751C651.957 4.46252 651.397 4.69 650.72 4.69C650.067 4.69 649.513 4.46252 649.057 4.00751C648.602 3.55249 648.375 2.99835 648.375 2.34503C648.375 1.66833 648.602 1.10834 649.057 0.664978C649.513 0.22168 650.067 0 650.72 0L650.72 0ZM672.455 15.75C672.455 14.3033 672.058 13.1658 671.265 12.3375C670.472 11.5092 669.375 11.095 667.975 11.095C666.318 11.1183 665.018 11.7017 664.073 12.845C663.128 13.9883 662.655 15.4117 662.655 17.115L661.535 17.115C661.535 14.805 661.862 12.95 662.515 11.55C663.168 10.15 664.096 9.12915 665.297 8.48749C666.499 7.84583 667.917 7.52502 669.55 7.52502C670.997 7.52502 672.239 7.81665 673.278 8.40002C674.316 8.98334 675.109 9.80585 675.658 10.8675C676.206 11.9291 676.48 13.2067 676.48 14.7L676.48 26.25L672.455 26.25L672.455 15.75ZM658.665 7.66498L662.69 7.66498L662.69 26.25L658.665 26.25L658.665 7.66498ZM696.045 20.37C696.045 21.3734 696.22 22.0558 696.57 22.4175C696.92 22.7792 697.41 22.96 698.04 22.96C698.46 22.96 698.898 22.89 699.353 22.75C699.808 22.61 700.303 22.4 700.84 22.12L701.855 25.025C701.132 25.4683 700.385 25.8125 699.615 26.0575C698.845 26.3025 698.063 26.425 697.27 26.425C696.337 26.425 695.473 26.2441 694.68 25.8825C693.887 25.5208 693.251 24.9434 692.773 24.15C692.294 23.3567 692.055 22.33 692.055 21.07L692.055 3.255L696.045 3.255L696.045 20.37ZM689.43 8.33002L701.54 8.33002L701.54 11.2L689.43 11.2L689.43 8.33002ZM719.565 15.75C719.565 14.3033 719.168 13.1658 718.375 12.3375C717.582 11.5092 716.485 11.095 715.085 11.095C713.428 11.1183 712.128 11.7017 711.183 12.845C710.238 13.9883 709.765 15.4117 709.765 17.115L708.645 17.115C708.645 14.805 708.972 12.95 709.625 11.55C710.278 10.15 711.206 9.12915 712.408 8.48749C713.609 7.84583 715.027 7.52502 716.66 7.52502C718.107 7.52502 719.349 7.81665 720.388 8.40002C721.426 8.98334 722.219 9.80585 722.768 10.8675C723.316 11.9291 723.59 13.2067 723.59 14.7L723.59 26.25L719.565 26.25L719.565 15.75ZM705.74 0.280029L709.765 0.280029L709.765 26.25L705.74 26.25L705.74 0.280029ZM741.86 15.61C741.813 14.56 741.574 13.6675 741.143 12.9325C740.711 12.1975 740.11 11.6259 739.34 11.2175C738.57 10.8091 737.683 10.605 736.68 10.605C735.56 10.605 734.586 10.8617 733.758 11.375C732.929 11.8883 732.282 12.6058 731.815 13.5275C731.348 14.4492 731.115 15.5283 731.115 16.765C731.115 18.095 731.366 19.25 731.867 20.23C732.369 21.21 733.069 21.9683 733.968 22.505C734.866 23.0417 735.898 23.31 737.065 23.31C739.142 23.31 740.892 22.575 742.315 21.105L744.45 23.24C743.54 24.2433 742.432 25.0192 741.125 25.5675C739.818 26.1158 738.36 26.39 736.75 26.39C734.837 26.39 733.168 25.9933 731.745 25.2C730.322 24.4067 729.213 23.3042 728.42 21.8925C727.627 20.4808 727.23 18.8417 727.23 16.975C727.23 15.1083 727.627 13.4692 728.42 12.0575C729.213 10.6458 730.322 9.54333 731.745 8.75C733.168 7.95667 734.802 7.54834 736.645 7.52502C738.838 7.52502 740.6 7.97418 741.93 8.8725C743.26 9.77081 744.205 11.0367 744.765 12.67C745.325 14.3033 745.523 16.24 745.36 18.48L730.485 18.48L730.485 15.61L741.86 15.61ZM756.07 7.66498L760.2 7.66498L765.03 22.54L769.72 7.66498L773.885 7.66498L778.61 22.54L783.37 7.66498L787.465 7.66498L780.675 26.25L776.51 26.25L771.785 12.18L767.06 26.25L762.93 26.25L756.07 7.66498ZM797.545 7.52502C799.458 7.52502 801.144 7.92169 802.603 8.71503C804.061 9.50836 805.198 10.6108 806.015 12.0225C806.832 13.4341 807.24 15.0734 807.24 16.94C807.24 18.8066 806.832 20.4517 806.015 21.875C805.198 23.2983 804.061 24.4067 802.603 25.2C801.144 25.9933 799.458 26.39 797.545 26.39C795.632 26.39 793.94 25.9933 792.47 25.2C791 24.4067 789.857 23.2983 789.04 21.875C788.223 20.4517 787.815 18.8066 787.815 16.94C787.815 15.0734 788.223 13.4341 789.04 12.0225C789.857 10.6108 791 9.50836 792.47 8.71503C793.94 7.92169 795.632 7.52502 797.545 7.52502L797.545 7.52502ZM797.545 10.78C796.425 10.78 795.433 11.0425 794.57 11.5675C793.707 12.0925 793.036 12.8217 792.557 13.755C792.079 14.6884 791.84 15.7617 791.84 16.975C791.84 18.2117 792.079 19.2967 792.557 20.23C793.036 21.1633 793.707 21.8925 794.57 22.4175C795.433 22.9425 796.425 23.205 797.545 23.205C798.665 23.205 799.651 22.9425 800.503 22.4175C801.354 21.8925 802.019 21.1633 802.497 20.23C802.976 19.2967 803.215 18.2117 803.215 16.975C803.215 15.7617 802.976 14.6884 802.497 13.755C802.019 12.8217 801.354 12.0925 800.503 11.5675C799.651 11.0425 798.665 10.78 797.545 10.78L797.545 10.78ZM821.905 11.165C820.575 11.095 819.426 11.3225 818.458 11.8475C817.489 12.3725 816.743 13.1017 816.218 14.035C815.693 14.9683 815.43 16.0417 815.43 17.255L814.31 17.115C814.31 15.0383 814.613 13.2883 815.22 11.865C815.827 10.4417 816.702 9.36249 817.845 8.6275C818.988 7.89252 820.342 7.52502 821.905 7.52502L821.905 11.165ZM811.44 7.66498L815.465 7.66498L815.465 26.25L811.44 26.25L811.44 7.66498ZM825.405 0.280029L829.43 0.280029L829.43 26.25L825.405 26.25L825.405 0.280029ZM842.66 7.48999C844.387 7.48999 845.851 7.86914 847.052 8.6275C848.254 9.38586 849.176 10.4708 849.818 11.8825C850.459 13.2942 850.768 14.98 850.745 16.94C850.768 18.9 850.465 20.5917 849.835 22.015C849.205 23.4384 848.289 24.5292 847.088 25.2875C845.886 26.0458 844.433 26.425 842.73 26.425C840.957 26.425 839.399 26.0225 838.057 25.2175C836.716 24.4125 835.672 23.2925 834.925 21.8575C834.178 20.4225 833.805 18.7717 833.805 16.905C833.805 15.0383 834.178 13.3992 834.925 11.9875C835.672 10.5758 836.71 9.47333 838.04 8.67999C839.37 7.88666 840.91 7.48999 842.66 7.48999L842.66 7.48999ZM843.57 10.745C842.45 10.745 841.458 11.0133 840.595 11.55C839.732 12.0867 839.061 12.8275 838.583 13.7725C838.104 14.7175 837.853 15.7967 837.83 17.01C837.853 18.2233 838.104 19.2967 838.583 20.23C839.061 21.1633 839.732 21.8983 840.595 22.435C841.458 22.9717 842.45 23.24 843.57 23.24C844.69 23.24 845.682 22.9717 846.545 22.435C847.408 21.8983 848.079 21.1633 848.557 20.23C849.036 19.2967 849.275 18.2233 849.275 17.01C849.275 15.7733 849.036 14.6884 848.557 13.755C848.079 12.8217 847.408 12.0867 846.545 11.55C845.682 11.0133 844.69 10.745 843.57 10.745L843.57 10.745ZM849.275 0.280029L853.3 0.280029L853.3 26.25L849.275 26.25L849.275 0.280029ZM868.035 14.28L876.645 14.28L876.645 16.94L868.035 16.94L868.035 14.28ZM904.33 12.985C903.677 12.3083 902.907 11.7833 902.02 11.41C901.133 11.0367 900.13 10.85 899.01 10.85C897.937 10.85 896.98 11.1067 896.14 11.62C895.3 12.1334 894.647 12.8508 894.18 13.7725C893.713 14.6942 893.48 15.7617 893.48 16.975C893.48 18.1884 893.713 19.2559 894.18 20.1775C894.647 21.0992 895.3 21.8225 896.14 22.3475C896.98 22.8725 897.937 23.135 899.01 23.135C900.177 23.135 901.227 22.9425 902.16 22.5575C903.093 22.1725 903.875 21.6067 904.505 20.86L906.745 23.065C905.905 24.115 904.814 24.9316 903.473 25.515C902.131 26.0983 900.585 26.39 898.835 26.39C896.992 26.39 895.364 25.9933 893.953 25.2C892.541 24.4067 891.438 23.3042 890.645 21.8925C889.852 20.4808 889.455 18.8417 889.455 16.975C889.455 15.1083 889.852 13.4692 890.645 12.0575C891.438 10.6458 892.541 9.53748 893.953 8.73248C895.364 7.92749 896.992 7.52502 898.835 7.52502C900.515 7.52502 902.003 7.77582 903.297 8.27753C904.593 8.77917 905.672 9.48499 906.535 10.395L904.33 12.985ZM921.41 11.165C920.08 11.095 918.931 11.3225 917.963 11.8475C916.994 12.3725 916.247 13.1017 915.723 14.035C915.198 14.9683 914.935 16.0417 914.935 17.255L913.815 17.115C913.815 15.0383 914.118 13.2883 914.725 11.865C915.332 10.4417 916.207 9.36249 917.35 8.6275C918.493 7.89252 919.847 7.52502 921.41 7.52502L921.41 11.165ZM910.945 7.66498L914.97 7.66498L914.97 26.25L910.945 26.25L910.945 7.66498ZM937.615 15.61C937.568 14.56 937.329 13.6675 936.898 12.9325C936.466 12.1975 935.865 11.6259 935.095 11.2175C934.325 10.8091 933.438 10.605 932.435 10.605C931.315 10.605 930.341 10.8617 929.513 11.375C928.684 11.8883 928.037 12.6058 927.57 13.5275C927.103 14.4492 926.87 15.5283 926.87 16.765C926.87 18.095 927.121 19.25 927.622 20.23C928.124 21.21 928.824 21.9683 929.723 22.505C930.621 23.0417 931.653 23.31 932.82 23.31C934.897 23.31 936.647 22.575 938.07 21.105L940.205 23.24C939.295 24.2433 938.187 25.0192 936.88 25.5675C935.573 26.1158 934.115 26.39 932.505 26.39C930.592 26.39 928.923 25.9933 927.5 25.2C926.077 24.4067 924.968 23.3042 924.175 21.8925C923.382 20.4808 922.985 18.8417 922.985 16.975C922.985 15.1083 923.382 13.4692 924.175 12.0575C924.968 10.6458 926.077 9.54333 927.5 8.75C928.923 7.95667 930.557 7.54834 932.4 7.52502C934.593 7.52502 936.355 7.97418 937.685 8.8725C939.015 9.77081 939.96 11.0367 940.52 12.67C941.08 14.3033 941.278 16.24 941.115 18.48L926.24 18.48L926.24 15.61L937.615 15.61ZM951.405 17.955C950.098 17.955 949.13 18.1533 948.5 18.55C947.87 18.9467 947.555 19.6 947.555 20.51C947.555 21.3734 947.876 22.0616 948.517 22.575C949.159 23.0883 950.04 23.345 951.16 23.345C952.163 23.345 953.062 23.17 953.855 22.82C954.648 22.47 955.278 21.9975 955.745 21.4025C956.212 20.8075 956.457 20.1367 956.48 19.39L957.25 22.785C956.667 23.9984 955.78 24.9083 954.59 25.515C953.4 26.1216 951.977 26.425 950.32 26.425C948.99 26.425 947.835 26.1683 946.855 25.655C945.875 25.1417 945.117 24.4475 944.58 23.5725C944.043 22.6975 943.775 21.7233 943.775 20.65C943.775 18.97 944.388 17.6284 945.613 16.625C946.838 15.6216 948.57 15.1083 950.81 15.085L956.97 15.085L956.97 17.955L951.405 17.955ZM956.445 14.455C956.445 13.2417 956.072 12.2967 955.325 11.62C954.578 10.9434 953.47 10.605 952 10.605C951.113 10.605 950.209 10.7683 949.287 11.095C948.366 11.4217 947.438 11.9 946.505 12.53L944.86 9.94C945.723 9.40332 946.54 8.96002 947.31 8.60999C948.08 8.26001 948.902 7.99164 949.777 7.80499C950.652 7.61835 951.685 7.52502 952.875 7.52502C955.278 7.52502 957.128 8.10248 958.422 9.25751C959.718 10.4125 960.377 12.005 960.4 14.035L960.435 26.25L956.48 26.25L956.445 14.455ZM970.55 20.37C970.55 21.3734 970.725 22.0558 971.075 22.4175C971.425 22.7792 971.915 22.96 972.545 22.96C972.965 22.96 973.402 22.89 973.858 22.75C974.313 22.61 974.808 22.4 975.345 22.12L976.36 25.025C975.637 25.4683 974.89 25.8125 974.12 26.0575C973.35 26.3025 972.568 26.425 971.775 26.425C970.842 26.425 969.978 26.2441 969.185 25.8825C968.392 25.5208 967.756 24.9434 967.277 24.15C966.799 23.3567 966.56 22.33 966.56 21.07L966.56 3.255L970.55 3.255L970.55 20.37ZM963.935 8.33002L976.045 8.33002L976.045 11.2L963.935 11.2L963.935 8.33002ZM992.74 15.61C992.693 14.56 992.454 13.6675 992.023 12.9325C991.591 12.1975 990.99 11.6259 990.22 11.2175C989.45 10.8091 988.563 10.605 987.56 10.605C986.44 10.605 985.466 10.8617 984.638 11.375C983.809 11.8883 983.162 12.6058 982.695 13.5275C982.228 14.4492 981.995 15.5283 981.995 16.765C981.995 18.095 982.246 19.25 982.747 20.23C983.249 21.21 983.949 21.9683 984.848 22.505C985.746 23.0417 986.778 23.31 987.945 23.31C990.022 23.31 991.772 22.575 993.195 21.105L995.33 23.24C994.42 24.2433 993.312 25.0192 992.005 25.5675C990.698 26.1158 989.24 26.39 987.63 26.39C985.717 26.39 984.048 25.9933 982.625 25.2C981.202 24.4067 980.093 23.3042 979.3 21.8925C978.507 20.4808 978.11 18.8417 978.11 16.975C978.11 15.1083 978.507 13.4692 979.3 12.0575C980.093 10.6458 981.202 9.54333 982.625 8.75C984.048 7.95667 985.682 7.54834 987.525 7.52502C989.718 7.52502 991.48 7.97418 992.81 8.8725C994.14 9.77081 995.085 11.0367 995.645 12.67C996.205 14.3033 996.403 16.24 996.24 18.48L981.365 18.48L981.365 15.61L992.74 15.61ZM1007.55 7.48999C1009.27 7.48999 1010.74 7.86914 1011.94 8.6275C1013.14 9.38586 1014.06 10.4708 1014.7 11.8825C1015.34 13.2942 1015.65 14.98 1015.63 16.94C1015.65 18.9 1015.35 20.5917 1014.72 22.015C1014.09 23.4384 1013.17 24.5292 1011.97 25.2875C1010.77 26.0458 1009.32 26.425 1007.62 26.425C1005.84 26.425 1004.28 26.0225 1002.94 25.2175C1001.6 24.4125 1000.56 23.2925 999.81 21.8575C999.063 20.4225 998.69 18.7717 998.69 16.905C998.69 15.0383 999.063 13.3992 999.81 11.9875C1000.56 10.5758 1001.6 9.47333 1002.93 8.67999C1004.26 7.88666 1005.8 7.48999 1007.55 7.48999L1007.55 7.48999ZM1008.45 10.745C1007.34 10.745 1006.34 11.0133 1005.48 11.55C1004.62 12.0867 1003.95 12.8275 1003.47 13.7725C1002.99 14.7175 1002.74 15.7967 1002.71 17.01C1002.74 18.2233 1002.99 19.2967 1003.47 20.23C1003.95 21.1633 1004.62 21.8983 1005.48 22.435C1006.34 22.9717 1007.34 23.24 1008.45 23.24C1009.58 23.24 1010.57 22.9717 1011.43 22.435C1012.29 21.8983 1012.96 21.1633 1013.44 20.23C1013.92 19.2967 1014.16 18.2233 1014.16 17.01C1014.16 15.7733 1013.92 14.6884 1013.44 13.755C1012.96 12.8217 1012.29 12.0867 1011.43 11.55C1010.57 11.0133 1009.58 10.745 1008.45 10.745L1008.45 10.745ZM1014.16 0.280029L1018.19 0.280029L1018.19 26.25L1014.16 26.25L1014.16 0.280029ZM1044.47 7.52502C1046.24 7.52502 1047.8 7.92169 1049.13 8.71503C1050.45 9.50836 1051.49 10.6166 1052.24 12.04C1052.99 13.4633 1053.36 15.12 1053.36 17.01C1053.36 18.8533 1052.99 20.4808 1052.26 21.8925C1051.52 23.3042 1050.5 24.4067 1049.18 25.2C1047.86 25.9933 1046.31 26.39 1044.54 26.39C1042.84 26.39 1041.38 26.0167 1040.18 25.27C1038.98 24.5233 1038.07 23.4442 1037.44 22.0325C1036.81 20.6208 1036.49 18.9467 1036.49 17.01C1036.49 15.0034 1036.81 13.2942 1037.44 11.8825C1038.07 10.4708 1038.98 9.39166 1040.18 8.64502C1041.38 7.89832 1042.81 7.52502 1044.47 7.52502L1044.47 7.52502ZM1043.63 10.71C1042.53 10.71 1041.55 10.9783 1040.69 11.515C1039.83 12.0517 1039.16 12.7808 1038.68 13.7025C1038.2 14.6241 1037.96 15.6917 1037.96 16.905C1037.96 18.1183 1038.2 19.1975 1038.68 20.1425C1039.16 21.0875 1039.83 21.8225 1040.69 22.3475C1041.55 22.8725 1042.53 23.135 1043.63 23.135C1044.75 23.135 1045.74 22.8667 1046.59 22.33C1047.44 21.7933 1048.1 21.0583 1048.58 20.125C1049.06 19.1917 1049.3 18.1183 1049.3 16.905C1049.3 15.715 1049.06 14.6533 1048.58 13.72C1048.1 12.7867 1047.44 12.0517 1046.59 11.515C1045.74 10.9783 1044.75 10.71 1043.63 10.71L1043.63 10.71ZM1033.94 0.280029L1037.96 0.280029L1037.96 26.25L1033.94 26.25L1033.94 0.280029ZM1064.17 28.875C1063.59 30.2983 1062.79 31.3775 1061.76 32.1125C1060.73 32.8475 1059.52 33.215 1058.12 33.215C1057.28 33.215 1056.52 33.0867 1055.83 32.83C1055.14 32.5734 1054.47 32.1884 1053.81 31.675L1055.53 28.7C1056.37 29.3066 1057.17 29.61 1057.94 29.61C1058.55 29.61 1059.1 29.435 1059.59 29.085C1060.08 28.735 1060.48 28.1984 1060.78 27.475L1061.41 26.005L1053.71 7.66498L1057.87 7.66498L1063.44 22.015L1068.62 7.66498L1072.64 7.66498L1064.17 28.875ZM1081.95 7.66498L1086.08 7.66498L1090.91 22.54L1095.6 7.66498L1099.77 7.66498L1104.49 22.54L1109.25 7.66498L1113.35 7.66498L1106.56 26.25L1102.39 26.25L1097.67 12.18L1092.94 26.25L1088.81 26.25L1081.95 7.66498ZM1126.82 11.165C1125.49 11.095 1124.35 11.3225 1123.38 11.8475C1122.41 12.3725 1121.66 13.1017 1121.14 14.035C1120.61 14.9683 1120.35 16.0417 1120.35 17.255L1119.23 17.115C1119.23 15.0383 1119.53 13.2883 1120.14 11.865C1120.75 10.4417 1121.62 9.36249 1122.76 8.6275C1123.91 7.89252 1125.26 7.52502 1126.82 7.52502L1126.82 11.165ZM1116.36 7.66498L1120.38 7.66498L1120.38 26.25L1116.36 26.25L1116.36 7.66498ZM1130.15 7.66498L1134.14 7.66498L1134.14 26.25L1130.15 26.25L1130.15 7.66498ZM1132.14 0C1132.82 0 1133.38 0.22168 1133.82 0.664978C1134.27 1.10834 1134.49 1.66833 1134.49 2.34503C1134.49 2.99835 1134.27 3.55249 1133.82 4.00751C1133.38 4.46252 1132.82 4.69 1132.14 4.69C1131.49 4.69 1130.94 4.46252 1130.48 4.00751C1130.03 3.55249 1129.8 2.99835 1129.8 2.34503C1129.8 1.66833 1130.03 1.10834 1130.48 0.664978C1130.94 0.22168 1131.49 0 1132.14 0L1132.14 0ZM1144.81 20.37C1144.81 21.3734 1144.99 22.0558 1145.34 22.4175C1145.69 22.7792 1146.18 22.96 1146.81 22.96C1147.23 22.96 1147.67 22.89 1148.12 22.75C1148.58 22.61 1149.07 22.4 1149.61 22.12L1150.62 25.025C1149.9 25.4683 1149.15 25.8125 1148.38 26.0575C1147.61 26.3025 1146.83 26.425 1146.04 26.425C1145.11 26.425 1144.24 26.2441 1143.45 25.8825C1142.66 25.5208 1142.02 24.9434 1141.54 24.15C1141.06 23.3567 1140.82 22.33 1140.82 21.07L1140.82 3.255L1144.81 3.255L1144.81 20.37ZM1138.2 8.33002L1150.31 8.33002L1150.31 11.2L1138.2 11.2L1138.2 8.33002ZM1167 15.61C1166.96 14.56 1166.72 13.6675 1166.29 12.9325C1165.86 12.1975 1165.25 11.6259 1164.48 11.2175C1163.71 10.8091 1162.83 10.605 1161.82 10.605C1160.7 10.605 1159.73 10.8617 1158.9 11.375C1158.07 11.8883 1157.43 12.6058 1156.96 13.5275C1156.49 14.4492 1156.26 15.5283 1156.26 16.765C1156.26 18.095 1156.51 19.25 1157.01 20.23C1157.51 21.21 1158.21 21.9683 1159.11 22.505C1160.01 23.0417 1161.04 23.31 1162.21 23.31C1164.29 23.31 1166.04 22.575 1167.46 21.105L1169.59 23.24C1168.68 24.2433 1167.58 25.0192 1166.27 25.5675C1164.96 26.1158 1163.5 26.39 1161.89 26.39C1159.98 26.39 1158.31 25.9933 1156.89 25.2C1155.47 24.4067 1154.36 23.3042 1153.56 21.8925C1152.77 20.4808 1152.37 18.8417 1152.37 16.975C1152.37 15.1083 1152.77 13.4692 1153.56 12.0575C1154.36 10.6458 1155.47 9.54333 1156.89 8.75C1158.31 7.95667 1159.95 7.54834 1161.79 7.52502C1163.98 7.52502 1165.74 7.97418 1167.07 8.8725C1168.4 9.77081 1169.35 11.0367 1169.91 12.67C1170.47 14.3033 1170.67 16.24 1170.5 18.48L1155.63 18.48L1155.63 15.61L1167 15.61ZM1185.17 11.165C1183.84 11.095 1182.69 11.3225 1181.72 11.8475C1180.75 12.3725 1180.01 13.1017 1179.48 14.035C1178.96 14.9683 1178.69 16.0417 1178.69 17.255L1177.57 17.115C1177.57 15.0383 1177.88 13.2883 1178.48 11.865C1179.09 10.4417 1179.97 9.36249 1181.11 8.6275C1182.25 7.89252 1183.61 7.52502 1185.17 7.52502L1185.17 11.165ZM1174.7 7.66498L1178.73 7.66498L1178.73 26.25L1174.7 26.25L1174.7 7.66498ZM1199.1 12.18C1198.28 11.69 1197.39 11.2992 1196.42 11.0075C1195.45 10.7158 1194.56 10.57 1193.74 10.57C1192.95 10.57 1192.3 10.7217 1191.78 11.025C1191.27 11.3283 1191.01 11.83 1191.01 12.53C1191.01 13.1133 1191.25 13.5742 1191.73 13.9125C1192.21 14.2509 1192.82 14.5367 1193.57 14.77C1194.32 15.0034 1195.11 15.2484 1195.95 15.505C1196.79 15.7617 1197.59 16.0942 1198.35 16.5025C1199.11 16.9108 1199.72 17.465 1200.18 18.165C1200.65 18.865 1200.88 19.7867 1200.88 20.93C1200.88 22.19 1200.55 23.2225 1199.89 24.0275C1199.22 24.8325 1198.35 25.4275 1197.26 25.8125C1196.18 26.1975 1195 26.39 1193.74 26.39C1192.39 26.39 1191.04 26.1683 1189.68 25.725C1188.33 25.2817 1187.19 24.64 1186.25 23.8L1187.69 21.07C1188.51 21.7933 1189.5 22.3592 1190.66 22.7675C1191.83 23.1758 1192.92 23.38 1193.92 23.38C1194.5 23.38 1195.02 23.3042 1195.48 23.1525C1195.93 23.0009 1196.29 22.7733 1196.56 22.47C1196.83 22.1667 1196.96 21.77 1196.96 21.28C1196.96 20.6266 1196.73 20.1133 1196.26 19.74C1195.8 19.3667 1195.19 19.0575 1194.44 18.8125C1193.7 18.5675 1192.9 18.3225 1192.06 18.0775C1191.22 17.8325 1190.44 17.5117 1189.7 17.115C1188.97 16.7183 1188.37 16.1816 1187.9 15.505C1187.43 14.8283 1187.2 13.93 1187.2 12.81C1187.2 11.55 1187.53 10.5292 1188.18 9.7475C1188.83 8.96582 1189.68 8.39417 1190.72 8.03247C1191.76 7.67084 1192.87 7.48999 1194.06 7.48999C1195.23 7.48999 1196.39 7.65332 1197.56 7.97998C1198.73 8.30664 1199.73 8.76166 1200.57 9.34497L1199.1 12.18ZM1215.16 6.51001C1215.16 5.03998 1215.47 3.83252 1216.09 2.88751C1216.71 1.9425 1217.51 1.24249 1218.49 0.787476C1219.47 0.33252 1220.5 0.10498 1221.57 0.10498C1222.13 0.10498 1222.7 0.180847 1223.27 0.33252C1223.84 0.484192 1224.37 0.688354 1224.86 0.945007L1224.02 4.02502C1223.69 3.88501 1223.33 3.75085 1222.92 3.6225C1222.51 3.49414 1222.09 3.42999 1221.67 3.42999C1221.23 3.42999 1220.82 3.51752 1220.43 3.6925C1220.05 3.86749 1219.74 4.14752 1219.5 4.53247C1219.27 4.91748 1219.15 5.41333 1219.15 6.02002L1219.15 26.25L1215.16 26.25L1215.16 6.51001ZM1212.71 8.33002L1224.02 8.33002L1224.02 11.2L1212.71 11.2L1212.71 8.33002ZM1234.45 7.52502C1236.36 7.52502 1238.05 7.92169 1239.51 8.71503C1240.97 9.50836 1242.1 10.6108 1242.92 12.0225C1243.74 13.4341 1244.14 15.0734 1244.14 16.94C1244.14 18.8066 1243.74 20.4517 1242.92 21.875C1242.1 23.2983 1240.97 24.4067 1239.51 25.2C1238.05 25.9933 1236.36 26.39 1234.45 26.39C1232.54 26.39 1230.84 25.9933 1229.37 25.2C1227.9 24.4067 1226.76 23.2983 1225.94 21.875C1225.13 20.4517 1224.72 18.8066 1224.72 16.94C1224.72 15.0734 1225.13 13.4341 1225.94 12.0225C1226.76 10.6108 1227.9 9.50836 1229.37 8.71503C1230.84 7.92169 1232.54 7.52502 1234.45 7.52502L1234.45 7.52502ZM1234.45 10.78C1233.33 10.78 1232.34 11.0425 1231.47 11.5675C1230.61 12.0925 1229.94 12.8217 1229.46 13.755C1228.98 14.6884 1228.74 15.7617 1228.74 16.975C1228.74 18.2117 1228.98 19.2967 1229.46 20.23C1229.94 21.1633 1230.61 21.8925 1231.47 22.4175C1232.34 22.9425 1233.33 23.205 1234.45 23.205C1235.57 23.205 1236.56 22.9425 1237.41 22.4175C1238.26 21.8925 1238.92 21.1633 1239.4 20.23C1239.88 19.2967 1240.12 18.2117 1240.12 16.975C1240.12 15.7617 1239.88 14.6884 1239.4 13.755C1238.92 12.8217 1238.26 12.0925 1237.41 11.5675C1236.56 11.0425 1235.57 10.78 1234.45 10.78L1234.45 10.78ZM1258.81 11.165C1257.48 11.095 1256.33 11.3225 1255.36 11.8475C1254.39 12.3725 1253.65 13.1017 1253.12 14.035C1252.6 14.9683 1252.33 16.0417 1252.33 17.255L1251.21 17.115C1251.21 15.0383 1251.52 13.2883 1252.12 11.865C1252.73 10.4417 1253.61 9.36249 1254.75 8.6275C1255.89 7.89252 1257.25 7.52502 1258.81 7.52502L1258.81 11.165ZM1248.34 7.66498L1252.37 7.66498L1252.37 26.25L1248.34 26.25L1248.34 7.66498ZM1268.64 7.66498L1272.77 7.66498L1277.6 22.54L1282.29 7.66498L1286.46 7.66498L1291.18 22.54L1295.94 7.66498L1300.04 7.66498L1293.25 26.25L1289.08 26.25L1284.36 12.18L1279.63 26.25L1275.5 26.25L1268.64 7.66498ZM1313.51 11.165C1312.18 11.095 1311.04 11.3225 1310.07 11.8475C1309.1 12.3725 1308.35 13.1017 1307.83 14.035C1307.3 14.9683 1307.04 16.0417 1307.04 17.255L1305.92 17.115C1305.92 15.0383 1306.22 13.2883 1306.83 11.865C1307.44 10.4417 1308.31 9.36249 1309.45 8.6275C1310.6 7.89252 1311.95 7.52502 1313.51 7.52502L1313.51 11.165ZM1303.05 7.66498L1307.07 7.66498L1307.07 26.25L1303.05 26.25L1303.05 7.66498ZM1316.84 7.66498L1320.83 7.66498L1320.83 26.25L1316.84 26.25L1316.84 7.66498ZM1318.83 0C1319.51 0 1320.07 0.22168 1320.51 0.664978C1320.96 1.10834 1321.18 1.66833 1321.18 2.34503C1321.18 2.99835 1320.96 3.55249 1320.51 4.00751C1320.07 4.46252 1319.51 4.69 1318.83 4.69C1318.18 4.69 1317.63 4.46252 1317.17 4.00751C1316.72 3.55249 1316.49 2.99835 1316.49 2.34503C1316.49 1.66833 1316.72 1.10834 1317.17 0.664978C1317.63 0.22168 1318.18 0 1318.83 0L1318.83 0ZM1331.5 20.37C1331.5 21.3734 1331.68 22.0558 1332.03 22.4175C1332.38 22.7792 1332.87 22.96 1333.5 22.96C1333.92 22.96 1334.36 22.89 1334.81 22.75C1335.27 22.61 1335.76 22.4 1336.3 22.12L1337.31 25.025C1336.59 25.4683 1335.84 25.8125 1335.07 26.0575C1334.3 26.3025 1333.52 26.425 1332.73 26.425C1331.8 26.425 1330.93 26.2441 1330.14 25.8825C1329.35 25.5208 1328.71 24.9434 1328.23 24.15C1327.75 23.3567 1327.51 22.33 1327.51 21.07L1327.51 3.255L1331.5 3.255L1331.5 20.37ZM1324.89 8.33002L1337 8.33002L1337 11.2L1324.89 11.2L1324.89 8.33002ZM1353.69 15.61C1353.65 14.56 1353.41 13.6675 1352.98 12.9325C1352.55 12.1975 1351.94 11.6259 1351.17 11.2175C1350.4 10.8091 1349.52 10.605 1348.51 10.605C1347.39 10.605 1346.42 10.8617 1345.59 11.375C1344.76 11.8883 1344.12 12.6058 1343.65 13.5275C1343.18 14.4492 1342.95 15.5283 1342.95 16.765C1342.95 18.095 1343.2 19.25 1343.7 20.23C1344.2 21.21 1344.9 21.9683 1345.8 22.505C1346.7 23.0417 1347.73 23.31 1348.9 23.31C1350.98 23.31 1352.73 22.575 1354.15 21.105L1356.28 23.24C1355.37 24.2433 1354.27 25.0192 1352.96 25.5675C1351.65 26.1158 1350.19 26.39 1348.58 26.39C1346.67 26.39 1345 25.9933 1343.58 25.2C1342.16 24.4067 1341.05 23.3042 1340.25 21.8925C1339.46 20.4808 1339.06 18.8417 1339.06 16.975C1339.06 15.1083 1339.46 13.4692 1340.25 12.0575C1341.05 10.6458 1342.16 9.54333 1343.58 8.75C1345 7.95667 1346.64 7.54834 1348.48 7.52502C1350.67 7.52502 1352.43 7.97418 1353.76 8.8725C1355.09 9.77081 1356.04 11.0367 1356.6 12.67C1357.16 14.3033 1357.36 16.24 1357.19 18.48L1342.32 18.48L1342.32 15.61L1353.69 15.61ZM1371.86 11.165C1370.53 11.095 1369.38 11.3225 1368.41 11.8475C1367.44 12.3725 1366.7 13.1017 1366.17 14.035C1365.65 14.9683 1365.38 16.0417 1365.38 17.255L1364.26 17.115C1364.26 15.0383 1364.57 13.2883 1365.17 11.865C1365.78 10.4417 1366.66 9.36249 1367.8 8.6275C1368.94 7.89252 1370.3 7.52502 1371.86 7.52502L1371.86 11.165ZM1361.39 7.66498L1365.42 7.66498L1365.42 26.25L1361.39 26.25L1361.39 7.66498ZM1385.79 12.18C1384.97 11.69 1384.08 11.2992 1383.11 11.0075C1382.14 10.7158 1381.25 10.57 1380.43 10.57C1379.64 10.57 1378.99 10.7217 1378.47 11.025C1377.96 11.3283 1377.7 11.83 1377.7 12.53C1377.7 13.1133 1377.94 13.5742 1378.42 13.9125C1378.9 14.2509 1379.51 14.5367 1380.26 14.77C1381.01 15.0034 1381.8 15.2484 1382.64 15.505C1383.48 15.7617 1384.28 16.0942 1385.04 16.5025C1385.8 16.9108 1386.41 17.465 1386.87 18.165C1387.34 18.865 1387.57 19.7867 1387.57 20.93C1387.57 22.19 1387.24 23.2225 1386.58 24.0275C1385.91 24.8325 1385.04 25.4275 1383.95 25.8125C1382.87 26.1975 1381.69 26.39 1380.43 26.39C1379.08 26.39 1377.73 26.1683 1376.37 25.725C1375.02 25.2817 1373.88 24.64 1372.94 23.8L1374.38 21.07C1375.2 21.7933 1376.19 22.3592 1377.35 22.7675C1378.52 23.1758 1379.61 23.38 1380.61 23.38C1381.19 23.38 1381.71 23.3042 1382.17 23.1525C1382.62 23.0009 1382.98 22.7733 1383.25 22.47C1383.52 22.1667 1383.65 21.77 1383.65 21.28C1383.65 20.6266 1383.42 20.1133 1382.95 19.74C1382.49 19.3667 1381.88 19.0575 1381.13 18.8125C1380.39 18.5675 1379.59 18.3225 1378.75 18.0775C1377.91 17.8325 1377.13 17.5117 1376.39 17.115C1375.66 16.7183 1375.06 16.1816 1374.59 15.505C1374.12 14.8283 1373.89 13.93 1373.89 12.81C1373.89 11.55 1374.22 10.5292 1374.87 9.7475C1375.52 8.96582 1376.37 8.39417 1377.41 8.03247C1378.45 7.67084 1379.56 7.48999 1380.75 7.48999C1381.92 7.48999 1383.08 7.65332 1384.25 7.97998C1385.42 8.30664 1386.42 8.76166 1387.26 9.34497L1385.79 12.18ZM1392.47 22.12C1393.1 22.12 1393.63 22.3242 1394.05 22.7325C1394.47 23.1408 1394.68 23.6717 1394.68 24.325C1394.68 24.9783 1394.47 25.515 1394.05 25.935C1393.63 26.355 1393.1 26.565 1392.47 26.565C1391.84 26.565 1391.32 26.355 1390.9 25.935C1390.48 25.515 1390.27 24.9783 1390.27 24.325C1390.27 23.6717 1390.48 23.1408 1390.9 22.7325C1391.32 22.3242 1391.84 22.12 1392.47 22.12L1392.47 22.12Z" fill="#FFFFFF" transform="translate(262.038 691.298)" />
    <g transform="translate(256 356)">
      <g transform="translate(0 0.744)">
        <path d="M106.923 47.1346C106.923 47.3263 106.914 47.5175 106.895 47.7082C106.877 47.899 106.849 48.0883 106.813 48.2763C106.776 48.4642 106.73 48.6501 106.676 48.8338C106.621 49.0173 106.558 49.1979 106.486 49.3756C106.414 49.5531 106.334 49.7267 106.245 49.8964C106.156 50.0661 106.06 50.2312 105.955 50.3917C105.85 50.5522 105.738 50.7073 105.619 50.857C105.499 51.0065 105.373 51.15 105.239 51.2875C105.239 51.2875 57.7347 100.241 57.7347 100.241C57.6655 100.312 57.5946 100.381 57.5219 100.449C57.4494 100.517 57.3753 100.583 57.2993 100.647C57.2231 100.711 57.1456 100.773 57.0666 100.833C56.9875 100.893 56.9069 100.951 56.825 101.007C56.743 101.063 56.6597 101.117 56.5751 101.169C56.4904 101.221 56.4044 101.271 56.3173 101.319C56.2303 101.366 56.1422 101.412 56.0527 101.455C55.9633 101.498 55.8728 101.539 55.7811 101.578C55.6897 101.617 55.5974 101.653 55.5042 101.687C55.4108 101.721 55.3166 101.753 55.2217 101.782C55.127 101.812 55.0315 101.839 54.9351 101.863C54.8389 101.888 54.7422 101.91 54.6451 101.93C54.5476 101.949 54.4499 101.967 54.3517 101.982C54.2535 101.997 54.155 102.009 54.056 102.019C53.9574 102.029 53.8583 102.036 53.7589 102.041C53.6598 102.046 53.5606 102.049 53.4614 102.049C53.362 102.049 53.2627 102.046 53.1636 102.041C53.0644 102.036 52.9655 102.029 52.8668 102.019C52.7679 102.009 52.6693 101.997 52.5712 101.982C52.473 101.967 52.3752 101.949 52.2778 101.93C52.1804 101.91 52.0836 101.888 51.9874 101.863C51.8913 101.839 51.7957 101.812 51.7008 101.782C51.6059 101.753 51.5118 101.721 51.4187 101.687C51.3252 101.653 51.2328 101.617 51.1414 101.578C51.05 101.539 50.9595 101.498 50.8701 101.455C50.7807 101.412 50.6924 101.366 50.6052 101.319C50.518 101.271 50.4321 101.221 50.3474 101.169C50.2628 101.117 50.1794 101.063 50.0975 101.007C50.0156 100.951 49.9352 100.893 49.8562 100.833C49.777 100.773 49.6995 100.711 49.6235 100.647C49.5476 100.583 49.4733 100.517 49.4006 100.449C49.3279 100.381 49.257 100.312 49.1878 100.241C49.1878 100.241 1.68343 51.2875 1.68343 51.2875C1.55005 51.15 1.42359 51.0065 1.30405 50.857C1.1845 50.7073 1.07243 50.5522 0.967827 50.3917C0.86322 50.2312 0.766563 50.0661 0.677864 49.8964C0.589172 49.7267 0.508842 49.553 0.436874 49.3752C0.364914 49.1978 0.301643 49.0173 0.247078 48.8338C0.192513 48.6501 0.146904 48.4642 0.110237 48.2763C0.0735779 48.088 0.0460434 47.8987 0.027626 47.7082C0.00920868 47.5175 0 47.3263 0 47.1346C0 47.1346 0 5.96106 0 5.96106C0 5.86351 0.002388 5.76602 0.00717163 5.66856C0.0119553 5.57112 0.0191269 5.47386 0.0286865 5.37677C0.0382385 5.27969 0.0501709 5.18291 0.064476 5.08641C0.0787811 4.9899 0.0954437 4.8938 0.114464 4.79813C0.133476 4.70244 0.154831 4.60727 0.17852 4.51263C0.202209 4.418 0.228203 4.32401 0.2565 4.23067C0.284798 4.13731 0.315376 4.04471 0.348213 3.95284C0.381058 3.86098 0.416138 3.76999 0.453445 3.67987C0.490746 3.58974 0.530243 3.50058 0.571922 3.41238C0.613609 3.32419 0.657425 3.23708 0.703384 3.15103C0.749336 3.065 0.797379 2.98015 0.847496 2.89647C0.897614 2.81279 0.949753 2.73039 1.00391 2.64928C1.05808 2.56816 1.1142 2.48842 1.17227 2.41006C1.23035 2.33171 1.29031 2.25482 1.35215 2.17941C1.414 2.10399 1.47765 2.03015 1.54313 1.95786C1.6086 1.88557 1.6758 1.81494 1.74473 1.74596C1.81367 1.67697 1.88425 1.60973 1.95649 1.5442C2.02872 1.4787 2.10252 1.41499 2.17788 1.3531C2.25324 1.29121 2.33007 1.2312 2.40838 1.1731C2.48668 1.11497 2.56636 1.05882 2.64742 1.00462C2.72848 0.950424 2.81082 0.898239 2.89444 0.848083C2.97806 0.797928 3.06285 0.749863 3.14883 0.703873C3.23481 0.657883 3.32186 0.614044 3.41 0.572327C3.49812 0.530609 3.58722 0.491089 3.67729 0.453766C3.76735 0.416428 3.85828 0.381332 3.95007 0.348465C4.04187 0.315598 4.13441 0.285004 4.22771 0.256683C4.32098 0.228363 4.4149 0.202347 4.50948 0.17865C4.60404 0.154938 4.69913 0.133575 4.79475 0.114548C4.89038 0.0955048 4.98641 0.0788269 5.08286 0.0645142C5.17927 0.0502014 5.27599 0.038269 5.37301 0.0287018C5.47002 0.0191345 5.56722 0.0119629 5.66459 0.00718689C5.76198 0.00239563 5.85941 0 5.95688 0C5.95688 0 100.966 0 100.966 0C101.063 0 101.161 0.00239563 101.258 0.00718689C101.356 0.0119629 101.453 0.0191345 101.55 0.0287018C101.647 0.038269 101.743 0.0502014 101.84 0.0645142C101.936 0.0788269 102.032 0.0955048 102.128 0.114548C102.224 0.133575 102.319 0.154938 102.413 0.17865C102.508 0.202347 102.602 0.228363 102.695 0.256683C102.788 0.285004 102.881 0.315598 102.973 0.348465C103.064 0.381332 103.156 0.416428 103.246 0.453766C103.336 0.491089 103.425 0.530609 103.513 0.572327C103.601 0.614044 103.688 0.657883 103.774 0.703873C103.86 0.749863 103.945 0.797928 104.028 0.848083C104.112 0.898239 104.194 0.950424 104.275 1.00462C104.357 1.05882 104.436 1.11497 104.514 1.1731C104.593 1.2312 104.67 1.29121 104.745 1.3531C104.82 1.41499 104.894 1.4787 104.966 1.5442C105.038 1.60973 105.109 1.67697 105.178 1.74596C105.247 1.81494 105.314 1.88557 105.38 1.95786C105.445 2.03015 105.509 2.10399 105.571 2.1794C105.633 2.25482 105.693 2.33171 105.75 2.41006C105.809 2.48842 105.865 2.56816 105.919 2.64928C105.973 2.73039 106.025 2.81279 106.075 2.89647C106.126 2.98015 106.174 3.065 106.22 3.15103C106.266 3.23708 106.309 3.32419 106.351 3.41238C106.392 3.50058 106.432 3.58974 106.469 3.67987C106.507 3.76999 106.542 3.86098 106.575 3.95284C106.607 4.04471 106.638 4.13731 106.666 4.23067C106.695 4.32401 106.721 4.418 106.744 4.51263C106.768 4.60727 106.789 4.70244 106.808 4.79813C106.827 4.8938 106.844 4.9899 106.858 5.08641C106.873 5.18291 106.885 5.27969 106.894 5.37677C106.904 5.47386 106.911 5.57112 106.916 5.66856C106.92 5.76602 106.923 5.86351 106.923 5.96106C106.923 5.96106 106.923 47.1346 106.923 47.1346Z" fill="#FFFFFF" fill-rule="evenodd" transform="translate(66.319 134.612)" />
        <path d="M40.4854 48.9327C40.4854 49.08 40.4799 49.2271 40.4689 49.3741C40.4581 49.521 40.4419 49.6673 40.4202 49.8127C40.3984 49.9585 40.3713 50.1032 40.3389 50.2469C40.3064 50.3907 40.2687 50.5329 40.2257 50.6736C40.1828 50.8146 40.1347 50.9537 40.0815 51.0909C40.028 51.2282 39.9697 51.3633 39.9065 51.4962C39.843 51.6292 39.7748 51.7597 39.7019 51.8877C39.629 52.0157 39.5514 52.1407 39.4692 52.2626C39.387 52.3849 39.3005 52.5038 39.2096 52.6196C39.1184 52.7353 39.0231 52.8476 38.9237 52.9563C38.8245 53.065 38.7214 53.1699 38.6142 53.2709C38.507 53.3719 38.3964 53.4687 38.2822 53.5615C38.1678 53.6542 38.0502 53.7427 37.9293 53.8269C37.8086 53.9109 37.6849 53.9904 37.558 54.0654C37.4313 54.1404 37.302 54.2105 37.1701 54.2757C37.0382 54.341 36.904 54.4013 36.7676 54.4568C36.6313 54.5121 36.493 54.5623 36.3529 54.6076C36.2128 54.6526 36.0712 54.6924 35.9281 54.7272C35.7851 54.7617 35.6409 54.7909 35.4957 54.8149C35.3505 54.8387 35.2046 54.8571 35.058 54.8704C34.9114 54.8834 34.7645 54.891 34.6173 54.8933C34.4701 54.8955 34.3231 54.8923 34.1762 54.8835C34.0293 54.8748 33.8828 54.8606 33.737 54.8412C33.5911 54.8214 33.4461 54.7964 33.3021 54.7662C33.1581 54.7359 33.0154 54.7003 32.874 54.6593C32.7326 54.6186 32.5929 54.5724 32.4549 54.5209C32.3169 54.4697 32.181 54.4135 32.0472 54.3522C31.9134 54.2907 31.7821 54.2245 31.6532 54.1535C31.5243 54.0825 31.3982 54.0068 31.2749 53.9263C31.1516 53.8458 31.0314 53.7609 30.9144 53.6717C30.7974 53.5822 30.6839 53.4886 30.5738 53.3909C30.4638 53.2931 30.3575 53.1914 30.2549 53.0856C30.2549 53.0856 1.68343 23.643 1.68343 23.643C1.55005 23.5055 1.42359 23.362 1.30405 23.2124C1.1845 23.0627 1.07243 22.9077 0.967824 22.7472C0.863217 22.5868 0.766565 22.4216 0.677867 22.2519C0.589172 22.0821 0.508842 21.9084 0.436878 21.7309C0.364912 21.5534 0.301646 21.3728 0.24708 21.1892C0.192514 21.0055 0.1469 20.8197 0.110239 20.6317C0.0735781 20.4436 0.0460396 20.2543 0.0276239 20.0636C0.00920795 19.8729 0 19.6817 0 19.4902C0 19.4902 0 5.96107 0 5.96107C0 5.8138 0.0054473 5.66672 0.0163419 5.51984C0.0272365 5.37296 0.0435485 5.22668 0.0652778 5.081C0.0870073 4.93535 0.114095 4.79068 0.14654 4.647C0.178985 4.50335 0.216698 4.36109 0.259681 4.22024C0.302664 4.07936 0.350797 3.94028 0.404082 3.803C0.457367 3.6657 0.515655 3.53056 0.578947 3.39761C0.642241 3.26463 0.710366 3.13418 0.783322 3.00627C0.856278 2.87834 0.933865 2.7533 1.01608 2.63114C1.0983 2.50898 1.18492 2.39004 1.27595 2.27431C1.36698 2.15857 1.46216 2.04636 1.5615 1.93768C1.66084 1.82899 1.76407 1.72414 1.87117 1.62313C1.97828 1.52213 2.08897 1.42521 2.20326 1.3324C2.31754 1.23959 2.4351 1.15114 2.55594 1.06705C2.67677 0.982964 2.80055 0.903458 2.92728 0.828545C3.054 0.753632 3.18332 0.683517 3.31524 0.618202C3.44716 0.552887 3.58131 0.492554 3.7177 0.437218C3.85408 0.381851 3.99232 0.331604 4.13243 0.286484C4.27254 0.241371 4.41413 0.201508 4.55721 0.166916C4.70026 0.132294 4.8444 0.103035 4.98963 0.0791397C5.13486 0.0552216 5.28077 0.0367126 5.42737 0.023613C5.57398 0.0105133 5.72085 0.00286102 5.868 0.000663757C6.01518 -0.00153351 6.16223 0.00172424 6.30916 0.0104523C6.45608 0.0191498 6.60248 0.033287 6.74836 0.0528564C6.89424 0.0724258 7.03919 0.097374 7.18322 0.127693C7.32725 0.15802 7.46995 0.193626 7.61133 0.23452C7.75271 0.275436 7.8924 0.321533 8.03038 0.372803C8.16836 0.424065 8.30426 0.48037 8.43807 0.54171C8.57186 0.60305 8.70321 0.669266 8.83213 0.740356C8.96102 0.811447 9.08711 0.887222 9.21041 0.96769C9.33371 1.04813 9.45385 1.13303 9.57086 1.22239C9.68786 1.31173 9.80139 1.40529 9.91144 1.50307C10.0215 1.60086 10.1278 1.70258 10.2304 1.80824C10.2304 1.80824 38.8019 31.251 38.8019 31.251C38.9353 31.3885 39.0618 31.532 39.1815 31.6814C39.3009 31.8312 39.4129 31.9863 39.5176 32.1468C39.6222 32.3072 39.7189 32.4723 39.8076 32.6421C39.8962 32.8118 39.9765 32.9854 40.0485 33.1629C40.1204 33.3406 40.1838 33.5212 40.2384 33.7047C40.2929 33.8884 40.3385 34.0742 40.3752 34.2622C40.4119 34.4502 40.4394 34.6395 40.4576 34.8302C40.4761 35.021 40.4854 35.2122 40.4854 35.4039C40.4854 35.4039 40.4854 48.9327 40.4854 48.9327Z" fill="#FFFFFF" fill-rule="evenodd" transform="translate(0 93.478)" />
        <path d="M30.2551 1.80824C30.3576 1.70258 30.4639 1.60086 30.574 1.50307C30.6841 1.40529 30.7976 1.31173 30.9146 1.22239C31.0316 1.13303 31.1518 1.04813 31.275 0.96769C31.3983 0.887222 31.5244 0.811447 31.6534 0.740356C31.7822 0.669266 31.9136 0.60305 32.0474 0.54171C32.1812 0.48037 32.3171 0.424065 32.4551 0.372803C32.593 0.321533 32.7327 0.275436 32.8741 0.23452C33.0155 0.193626 33.1582 0.15802 33.3023 0.127693C33.4463 0.097374 33.5912 0.0724258 33.7371 0.0528564C33.883 0.033287 34.0294 0.0191498 34.1763 0.0104523C34.3232 0.00172424 34.4703 -0.00153351 34.6174 0.000663757C34.7646 0.00286102 34.9115 0.0105133 35.0581 0.023613C35.2047 0.0367126 35.3506 0.0552216 35.4958 0.0791397C35.641 0.103035 35.7852 0.132294 35.9283 0.166916C36.0713 0.201508 36.2129 0.241371 36.353 0.286484C36.4931 0.331604 36.6314 0.381836 36.7677 0.43718C36.9041 0.492546 37.0383 0.552887 37.1702 0.618202C37.3021 0.683517 37.4315 0.753632 37.5583 0.828545C37.685 0.903458 37.8087 0.982964 37.9296 1.06705C38.0503 1.15114 38.1678 1.23959 38.2822 1.3324C38.3964 1.42521 38.507 1.52213 38.6142 1.62313C38.7213 1.72414 38.8246 1.82899 38.9241 1.93768C39.0232 2.04636 39.1184 2.15857 39.2096 2.27431C39.3005 2.39004 39.387 2.50898 39.4692 2.63114C39.5517 2.7533 39.6293 2.87834 39.7023 3.00627C39.7752 3.13418 39.8433 3.26463 39.9065 3.39761C39.9697 3.53056 40.028 3.6657 40.0815 3.803C40.1347 3.94028 40.1827 4.07936 40.2257 4.22024C40.2687 4.36109 40.3064 4.50335 40.3389 4.647C40.3713 4.79068 40.3984 4.93535 40.4202 5.081C40.4419 5.22668 40.4583 5.37296 40.4693 5.51984C40.48 5.66672 40.4854 5.8138 40.4854 5.96107C40.4854 5.96107 40.4854 19.4902 40.4854 19.4902C40.4854 19.6818 40.4762 19.873 40.458 20.0636C40.4395 20.2543 40.4119 20.4437 40.3752 20.6317C40.3385 20.8198 40.2929 21.0056 40.2384 21.1892C40.1837 21.3729 40.1204 21.5535 40.0485 21.731C39.9765 21.9085 39.8962 22.0822 39.8076 22.2519C39.7189 22.4217 39.6222 22.5869 39.5176 22.7473C39.4129 22.9078 39.3009 23.0628 39.1815 23.2124C39.0618 23.3621 38.9353 23.5056 38.8019 23.6431C38.8019 23.6431 10.2304 53.086 10.2304 53.086C10.1278 53.1915 10.0215 53.2931 9.91144 53.3909C9.80139 53.4888 9.68785 53.5825 9.57086 53.6717C9.45386 53.7612 9.33371 53.846 9.2104 53.9263C9.08711 54.0068 8.96101 54.0826 8.83212 54.1539C8.70322 54.2249 8.57185 54.291 8.43808 54.3522C8.30426 54.4137 8.16837 54.4701 8.03038 54.5213C7.8924 54.5726 7.75272 54.6187 7.61133 54.6597C7.46996 54.7004 7.32724 54.736 7.18321 54.7665C7.03918 54.7968 6.89424 54.8217 6.74837 54.8412C6.60248 54.8606 6.45609 54.8748 6.30916 54.8835C6.16223 54.8923 6.01518 54.8955 5.868 54.8933C5.72086 54.8913 5.57397 54.8836 5.42737 54.8704C5.28078 54.8574 5.13486 54.8389 4.98962 54.8149C4.84441 54.7909 4.70026 54.7617 4.55721 54.7272C4.41412 54.6927 4.27254 54.6528 4.13243 54.6076C3.99232 54.5626 3.85408 54.5123 3.7177 54.4568C3.58131 54.4016 3.44716 54.3412 3.31525 54.2757C3.18332 54.2105 3.054 54.1404 2.92728 54.0654C2.80055 53.9906 2.67677 53.9112 2.55594 53.8269C2.4351 53.7429 2.31754 53.6546 2.20326 53.5618C2.08897 53.4688 1.97827 53.3719 1.87117 53.2709C1.76407 53.1699 1.66084 53.065 1.56151 52.9563C1.46216 52.8476 1.36697 52.7353 1.27596 52.6196C1.18492 52.5038 1.0983 52.385 1.01608 52.263C0.933868 52.1408 0.856277 52.0157 0.783325 51.8877C0.710373 51.76 0.642242 51.6296 0.578949 51.4966C0.515656 51.3636 0.457367 51.2284 0.404083 51.0909C0.3508 50.9537 0.302658 50.8147 0.259674 50.674C0.216705 50.533 0.178986 50.3907 0.146545 50.2469C0.11409 50.1035 0.0870056 49.9588 0.0652771 49.8131C0.0435486 49.6674 0.0272369 49.521 0.0163422 49.3741C0.00544739 49.2273 0 49.0803 0 48.9331C0 48.9331 0 35.4039 0 35.4039C0 35.2122 0.00920105 35.0211 0.0276184 34.8306C0.0460358 34.6399 0.0735779 34.4504 0.110245 34.2622C0.146896 34.0742 0.19252 33.8885 0.247086 33.705C0.301651 33.5213 0.364914 33.3407 0.436874 33.1632C0.508835 32.9855 0.589172 32.8118 0.677872 32.6421C0.766571 32.4723 0.86322 32.3072 0.967819 32.1468C1.07243 31.9863 1.18451 31.8313 1.30405 31.6818C1.42358 31.5321 1.55005 31.3885 1.68343 31.251C1.68343 31.251 30.2551 1.80824 30.2551 1.80824Z" fill="#FFFFFF" fill-rule="evenodd" transform="translate(199.332 93.478)" />
        <path d="M44.2331 106.053C44.3715 106.195 44.5168 106.331 44.6689 106.459C44.8208 106.587 44.9787 106.707 45.1429 106.819C45.307 106.932 45.4762 107.036 45.6506 107.131C45.8249 107.226 46.0036 107.313 46.1867 107.39C46.3698 107.468 46.5563 107.536 46.7461 107.594C46.936 107.653 47.1283 107.702 47.3231 107.742C47.518 107.781 47.7142 107.811 47.9118 107.831C48.1096 107.851 48.3079 107.861 48.5068 107.861C48.5068 107.861 165.594 107.861 165.594 107.861C165.793 107.861 165.991 107.851 166.189 107.831C166.387 107.811 166.583 107.781 166.778 107.742C166.973 107.702 167.165 107.653 167.355 107.594C167.545 107.536 167.731 107.468 167.914 107.39C168.097 107.313 168.276 107.226 168.45 107.131C168.625 107.036 168.794 106.932 168.958 106.819C169.122 106.707 169.28 106.587 169.432 106.459C169.584 106.331 169.729 106.195 169.868 106.053C169.868 106.053 212.422 62.2008 212.422 62.2008C212.503 62.1176 212.581 62.0321 212.657 61.9443C212.733 61.8568 212.806 61.7671 212.876 61.6751C212.947 61.5831 213.014 61.4891 213.079 61.3932C213.144 61.2972 213.206 61.1994 213.266 61.0999C213.325 61.0005 213.381 60.8993 213.435 60.7966C213.488 60.6936 213.538 60.5893 213.586 60.4835C213.633 60.3778 213.677 60.2708 213.718 60.1626C213.759 60.0541 213.797 59.9446 213.832 59.8341C213.867 59.7236 213.898 59.6122 213.926 59.4997C213.955 59.3872 213.98 59.2741 214.001 59.1604C214.023 59.0464 214.041 58.932 214.056 58.8173C214.071 58.7023 214.082 58.5871 214.091 58.4716C214.099 58.3558 214.104 58.2401 214.105 58.1244C214.107 58.0084 214.105 57.8925 214.1 57.7768C214.094 57.6611 214.086 57.5456 214.074 57.4303C214.062 57.3151 214.046 57.2003 214.028 57.0858C214.009 56.9715 213.987 56.8578 213.962 56.7446C213.936 56.6316 213.908 56.5194 213.876 56.4079C213.844 56.2966 213.809 56.1863 213.771 56.0768C213.732 55.9675 213.691 55.8594 213.646 55.7525C213.602 55.6455 213.554 55.5399 213.503 55.4356C213.453 55.3316 213.399 55.229 213.342 55.1278C213.285 55.0268 213.226 54.9276 213.163 54.8301C213.101 54.7326 213.035 54.637 212.967 54.5433C212.899 54.4495 212.829 54.3578 212.755 54.268C212.682 54.1786 212.606 54.0912 212.527 54.006C212.449 53.9207 212.368 53.8379 212.285 53.7574C212.201 53.6771 212.115 53.5993 212.028 53.5238C211.94 53.4483 211.85 53.3754 211.757 53.3052C211.665 53.2349 211.571 53.1674 211.475 53.1027C211.379 53.038 211.281 52.9761 211.182 52.9171C211.082 52.8581 210.981 52.8021 210.878 52.7491C210.878 52.7491 109.883 0.662318 109.883 0.662318C109.778 0.608198 109.671 0.557245 109.563 0.509459C109.456 0.461674 109.346 0.417139 109.236 0.375854C109.125 0.33457 109.013 0.296611 108.901 0.261976C108.788 0.227338 108.674 0.196086 108.559 0.16822C108.444 0.140354 108.329 0.115921 108.213 0.0949219C108.097 0.0739249 107.98 0.0563987 107.863 0.0423432C107.746 0.0282876 107.628 0.017728 107.51 0.0106639C107.392 0.00360245 107.274 4.796e-05 107.156 4.46971e-07C107.038 -4.45183e-05 106.92 0.00341875 106.802 0.0103902C106.684 0.0173618 106.567 0.0278291 106.45 0.041792C106.333 0.055755 106.216 0.07319 106.1 0.0940971C105.983 0.115007 105.868 0.139349 105.753 0.167125C105.639 0.194901 105.525 0.226065 105.412 0.260615C105.299 0.295162 105.187 0.333034 105.077 0.374231C104.966 0.41543 104.857 0.45988 104.749 0.507581C104.641 0.555284 104.534 0.606153 104.429 0.660188C104.429 0.660188 3.23208 52.7518 3.23208 52.7518C3.12907 52.8048 3.02769 52.8607 2.92795 52.9197C2.82818 52.9787 2.73023 53.0405 2.63408 53.105C2.53794 53.1697 2.44376 53.2372 2.35153 53.3074C2.25931 53.3777 2.16921 53.4504 2.08124 53.5257C1.99326 53.6011 1.90756 53.6791 1.82413 53.7596C1.7407 53.8401 1.65968 53.9228 1.58107 54.0078C1.50246 54.0931 1.4264 54.1804 1.35289 54.2699C1.27938 54.3597 1.20854 54.4514 1.14037 54.5451C1.0722 54.6389 1.00683 54.7345 0.944259 54.832C0.881661 54.9295 0.821961 55.0288 0.76516 55.1301C0.708358 55.231 0.654552 55.3335 0.603745 55.4375C0.552914 55.5417 0.505166 55.6474 0.460504 55.7543C0.415841 55.8613 0.374339 55.9696 0.335997 56.079C0.297628 56.1883 0.262484 56.2986 0.23056 56.4101C0.198637 56.5216 0.169999 56.634 0.144645 56.7472C0.119267 56.8602 0.0971975 56.9739 0.0784388 57.0884C0.0597038 57.2026 0.0443172 57.3175 0.0322771 57.433C0.0202379 57.5482 0.0115576 57.6637 0.00623703 57.7794C0.000941277 57.8952 -0.000982285 58.011 0.000466347 58.127C0.00191593 58.243 0.00673676 58.3588 0.0149298 58.4746C0.0231228 58.5901 0.0346756 58.7053 0.0495882 58.8203C0.0645256 58.9353 0.0827847 59.0497 0.104366 59.1637C0.125948 59.2775 0.15084 59.3906 0.179041 59.503C0.207217 59.6155 0.238653 59.7271 0.273349 59.8379C0.308044 59.9484 0.345925 60.0578 0.386991 60.1663C0.428082 60.2746 0.472281 60.3817 0.519591 60.4877C0.566902 60.5934 0.617259 60.6976 0.670664 60.8004C0.72407 60.9033 0.780435 61.0046 0.839759 61.1041C0.899059 61.2038 0.961206 61.3017 1.0262 61.3977C1.09122 61.4936 1.15897 61.5876 1.22943 61.6796C1.29992 61.7716 1.37303 61.8615 1.44877 61.9492C1.52448 62.0369 1.60269 62.1223 1.6834 62.2053C1.6834 62.2053 44.2331 106.053 44.2331 106.053Z" fill="#FFFFFF" fill-rule="evenodd" transform="translate(12.911 0)" />
        <path d="M64.914 17.0414C74.3561 17.0414 83.0113 18.5599 90.8796 21.597C98.748 24.634 105.605 28.9084 111.45 34.4202C117.295 39.9319 121.819 46.4278 125.023 53.908C128.226 61.3882 129.828 69.5714 129.828 78.4577C129.828 87.3439 128.226 95.5834 125.023 103.176C121.819 110.769 117.295 117.349 111.45 122.917C105.605 128.485 98.748 132.816 90.8796 135.909C83.0113 139.002 74.3561 140.549 64.914 140.549C55.472 140.549 46.8168 139.002 38.9484 135.909C31.08 132.816 24.2233 128.485 18.3783 122.917C12.5332 117.349 8.00888 110.797 4.80533 103.26C1.60175 95.724 0 87.4564 0 78.4577C0 69.4589 1.60175 61.2195 4.80533 53.7393C8.00888 46.2591 12.5332 39.7913 18.3783 34.3358C24.2233 28.8803 31.08 24.634 38.9484 21.597C46.8168 18.5599 55.472 17.0414 64.914 17.0414C64.914 17.0414 64.914 17.0414 64.914 17.0414ZM65.4198 49.6055C62.0476 49.6055 58.816 50.3085 55.7248 51.7145C52.6337 53.1206 49.9359 55.1453 47.6317 57.7887C45.3273 60.4321 43.5008 63.4972 42.1519 66.9842C40.803 70.4713 40.1286 74.352 40.1286 78.6263C40.1286 82.7883 40.803 86.6689 42.1519 90.2684C43.5008 93.8679 45.3554 96.9893 47.7159 99.6327C50.0765 102.276 52.7742 104.329 55.8091 105.791C58.8441 107.254 62.0476 107.985 65.4198 107.985C68.7919 107.985 71.9393 107.254 74.8618 105.791C77.7844 104.329 80.3697 102.276 82.6178 99.6327C84.8659 96.9893 86.6082 93.8679 87.8446 90.2684C89.0811 86.6689 89.6993 82.7883 89.6993 78.6263C89.6993 74.352 89.0811 70.4713 87.8446 66.9842C86.6082 63.4972 84.8659 60.4321 82.6178 57.7887C80.3697 55.1453 77.7844 53.1206 74.8618 51.7145C71.9393 50.3085 68.7919 49.6055 65.4198 49.6055C65.4198 49.6055 65.4198 49.6055 65.4198 49.6055ZM203.847 44.2062C212.39 44.2062 219.837 46.1747 226.187 50.1116C232.538 54.0485 237.456 59.6165 240.941 66.8155C244.425 74.0144 246.167 82.507 246.167 92.2931C246.167 101.742 244.481 109.981 241.109 117.011C237.737 124.042 232.96 129.497 226.778 133.378C220.595 137.259 213.289 139.199 204.859 139.199C197.665 139.199 191.37 137.259 185.974 133.378C180.579 129.497 176.392 124.014 173.413 116.927C170.434 109.841 168.945 101.573 168.945 92.1244C168.945 82.4507 170.378 74.0144 173.245 66.8155C176.111 59.6165 180.158 54.0485 185.384 50.1116C190.611 46.1747 196.765 44.2062 203.847 44.2062C203.847 44.2062 203.847 44.2062 203.847 44.2062ZM194.068 73.3959C191.37 73.3959 188.981 74.127 186.902 75.5893C184.822 77.0516 183.22 79.1326 182.096 81.8322C180.972 84.5318 180.41 87.6814 180.41 91.2808C180.41 94.8803 180.972 98.0299 182.096 100.729C183.22 103.429 184.822 105.51 186.902 106.972C188.981 108.435 191.37 109.166 194.068 109.166C196.878 109.166 199.323 108.435 201.402 106.972C203.482 105.51 205.083 103.429 206.207 100.729C207.331 98.0299 207.893 94.8803 207.893 91.2808C207.893 87.6814 207.331 84.5318 206.207 81.8322C205.083 79.1326 203.482 77.0516 201.402 75.5893C199.323 74.127 196.878 73.3959 194.068 73.3959C194.068 73.3959 194.068 73.3959 194.068 73.3959ZM142.474 45.556C142.474 45.556 180.41 45.556 180.41 45.556L180.41 170.582L142.474 170.582C142.474 170.582 142.474 45.556 142.474 45.556ZM311.587 82.6757C311.812 80.0886 311.475 77.8108 310.576 75.8423C309.676 73.8738 308.384 72.3272 306.698 71.2023C305.012 70.0775 303.044 69.5151 300.796 69.5151C297.986 69.5151 295.626 70.4149 293.715 72.2147C291.804 74.0144 290.371 76.461 289.415 79.5543C288.46 82.6476 287.982 86.1065 287.982 89.9309C287.982 94.5428 288.685 98.4235 290.09 101.573C291.495 104.723 293.462 107.113 295.991 108.744C298.52 110.375 301.471 111.19 304.843 111.19C311.475 111.19 317.713 108.435 323.558 102.923C323.558 102.923 343.286 122.326 343.286 122.326C338.452 127.726 332.523 131.887 325.497 134.812C318.472 137.737 310.463 139.199 301.471 139.199C291.017 139.199 282.025 137.259 274.494 133.378C266.962 129.497 261.202 124.014 257.211 116.927C253.221 109.841 251.226 101.573 251.226 92.1244C251.226 82.3383 253.277 73.8738 257.38 66.7311C261.483 59.5884 267.215 54.0485 274.578 50.1116C281.94 46.1747 290.567 44.2062 300.459 44.2062C311.25 44.2062 320.411 46.5121 327.942 51.1239C335.473 55.7358 341.122 62.2317 344.887 70.6118C348.653 78.9919 350.198 88.8623 349.524 100.223C349.524 100.223 283.093 100.223 283.093 100.223L283.093 82.6757C283.093 82.6757 311.587 82.6757 311.587 82.6757ZM422.531 89.9311C422.531 85.9942 421.52 82.9008 419.496 80.6512C417.473 78.4015 414.831 77.2767 411.572 77.2767C407.862 77.2767 404.91 78.6265 402.722 81.3261C400.53 84.0257 399.432 87.6252 399.432 92.1245C399.432 92.1245 391.002 92.1245 391.002 92.1245C391.002 82.3384 392.463 73.8178 395.385 66.5625C398.308 59.3073 402.497 53.7113 407.945 49.7743C413.4 45.8374 419.89 43.8689 427.421 43.8689C433.94 43.8689 439.673 45.3031 444.619 48.1714C449.565 51.0397 453.443 55.1173 456.253 60.4041C459.063 65.6908 460.468 71.8774 460.468 78.9639C460.468 78.9639 460.468 137.849 460.468 137.849L422.531 137.849C422.531 137.849 422.531 89.9311 422.531 89.9311ZM361.495 45.556C361.495 45.556 399.432 45.556 399.432 45.556L399.432 137.849L361.495 137.849C361.495 137.849 361.495 45.556 361.495 45.556ZM531.115 19.5721C546.514 19.5721 558.429 23.256 566.86 30.6237C575.29 37.9914 579.505 48.4243 579.505 61.9224C579.505 76.2079 575.29 87.3156 566.86 95.2458C558.429 103.176 546.514 107.141 531.115 107.141C531.115 107.141 497.73 107.141 497.73 107.141L514.76 90.0996L514.76 137.849L475.643 137.849L475.643 19.5721C475.643 19.5721 531.115 19.5721 531.115 19.5721ZM529.091 77.4453C533.363 77.4453 536.649 76.1798 538.953 73.6489C541.261 71.118 542.411 67.6029 542.411 63.1035C542.411 58.7167 541.261 55.314 538.953 52.8956C536.649 50.4772 533.363 49.268 529.091 49.268C529.091 49.268 497.73 49.268 497.73 49.268L514.76 32.2267L514.76 94.4866L497.73 77.4453C497.73 77.4453 529.091 77.4453 529.091 77.4453ZM658.245 78.1203C652.625 77.2204 647.679 77.2766 643.407 78.289C639.136 79.3014 635.846 81.1292 633.546 83.7726C631.238 86.416 630.087 89.7624 630.087 93.8118C630.087 93.8118 621.657 92.1245 621.657 92.1245C621.657 82.3384 623.174 73.8178 626.209 66.5625C629.244 59.3073 633.49 53.7112 638.937 49.7743C644.389 45.8374 650.826 43.8689 658.245 43.8689C658.245 43.8689 658.245 78.1203 658.245 78.1203ZM592.151 45.556C592.151 45.556 630.087 45.556 630.087 45.556L630.087 137.849L592.151 137.849C592.151 137.849 592.151 45.556 592.151 45.556ZM714.56 44.2062C725.126 44.2062 734.317 46.1465 742.126 50.0272C749.938 53.9079 755.982 59.3915 760.253 66.478C764.524 73.5645 766.66 81.9446 766.66 91.6182C766.66 101.179 764.524 109.531 760.253 116.674C755.982 123.817 749.938 129.357 742.126 133.294C734.317 137.23 725.126 139.199 714.56 139.199C703.994 139.199 694.807 137.23 686.991 133.294C679.179 129.357 673.139 123.817 668.867 116.674C664.596 109.531 662.46 101.179 662.46 91.6182C662.46 81.9446 664.596 73.5645 668.867 66.478C673.139 59.3915 679.179 53.9079 686.991 50.0272C694.807 46.1465 703.994 44.2062 714.56 44.2062C714.56 44.2062 714.56 44.2062 714.56 44.2062ZM714.56 74.2395C711.75 74.2395 709.307 74.9706 707.224 76.4329C705.148 77.8952 703.544 79.9762 702.42 82.6758C701.296 85.3754 700.734 88.525 700.734 92.1245C700.734 95.724 701.296 98.8735 702.42 101.573C703.544 104.273 705.148 106.354 707.224 107.816C709.307 109.278 711.75 110.009 714.56 110.009C717.37 110.009 719.817 109.278 721.893 107.816C723.972 106.354 725.576 104.273 726.7 101.573C727.824 98.8735 728.386 95.724 728.386 92.1245C728.386 88.525 727.824 85.3754 726.7 82.6758C725.576 79.9762 723.972 77.8952 721.893 76.4329C719.817 74.9706 717.37 74.2395 714.56 74.2395C714.56 74.2395 714.56 74.2395 714.56 74.2395ZM783.521 42.3502C783.521 35.9386 785.094 30.3706 788.242 25.6463C791.389 20.922 795.829 17.2662 801.562 14.6791C807.294 12.092 814.039 10.8546 821.795 10.9671C825.392 10.9671 829.045 11.2483 832.754 11.8107C836.463 12.3732 839.948 13.1606 843.208 14.1729C843.208 14.1729 839.498 42.1814 839.498 42.1814C837.7 41.619 836.014 41.1691 834.44 40.8316C832.867 40.4942 831.405 40.3254 830.056 40.3254C828.258 40.213 826.71 40.466 825.418 41.0847C824.125 41.7034 823.117 42.6032 822.387 43.7843C821.652 44.9654 821.289 46.3996 821.289 48.0868C821.289 48.0868 821.289 137.849 821.289 137.849L783.521 137.849C783.521 137.849 783.521 42.3502 783.521 42.3502ZM770.875 50.6178C770.875 50.6178 839.161 50.6178 839.161 50.6178L839.161 74.5769L770.875 74.5769C770.875 74.5769 770.875 50.6178 770.875 50.6178ZM848.603 45.556C848.603 45.556 886.54 45.556 886.54 45.556L886.54 137.849L848.603 137.849C848.603 137.849 848.603 45.556 848.603 45.556ZM867.656 0C873.276 0 877.885 1.79974 881.482 5.39923C885.079 8.99876 886.877 13.6106 886.877 19.2348C886.877 24.859 885.079 29.4708 881.482 33.0703C877.885 36.6698 873.276 38.4695 867.656 38.4695C862.036 38.4695 857.427 36.6698 853.83 33.0703C850.233 29.4708 848.435 24.859 848.435 19.2348C848.435 13.6106 850.233 8.99876 853.83 5.39923C857.427 1.79976 862.036 2.28882e-05 867.656 0C867.656 0 867.656 0 867.656 0ZM905.93 12.6544C905.93 12.6544 943.867 12.6544 943.867 12.6544L943.867 137.849L905.93 137.849C905.93 137.849 905.93 12.6544 905.93 12.6544ZM1016.87 82.6757C1017.1 80.0886 1016.76 77.8108 1015.86 75.8423C1014.96 73.8738 1013.67 72.3272 1011.98 71.2023C1010.3 70.0775 1008.33 69.5151 1006.08 69.5151C1003.27 69.5151 1000.91 70.4149 999.001 72.2147C997.09 74.0144 995.659 76.461 994.7 79.5543C993.745 82.6476 993.269 86.1065 993.269 89.9309C993.269 94.5428 993.973 98.4235 995.378 101.573C996.783 104.723 998.75 107.113 1001.28 108.744C1003.81 110.375 1006.76 111.19 1010.13 111.19C1016.76 111.19 1023 108.435 1028.84 102.923C1028.84 102.923 1048.57 122.326 1048.57 122.326C1043.74 127.726 1037.81 131.887 1030.79 134.812C1023.76 137.737 1015.75 139.199 1006.76 139.199C996.304 139.199 987.311 137.259 979.78 133.378C972.249 129.497 966.486 124.014 962.5 116.927C958.505 109.841 956.512 101.573 956.512 92.1244C956.512 82.3383 958.565 73.8738 962.665 66.7311C966.767 59.5884 972.5 54.0485 979.862 50.1116C987.229 46.1747 995.854 44.2062 1005.75 44.2062C1016.54 44.2062 1025.7 46.5121 1033.23 51.1239C1040.76 55.7358 1046.41 62.2317 1050.18 70.6118C1053.94 78.9919 1055.48 88.8623 1054.81 100.223C1054.81 100.223 988.379 100.223 988.379 100.223L988.379 82.6757C988.379 82.6757 1016.87 82.6757 1016.87 82.6757Z" fill="#FFFFFF" transform="translate(314.36 42)" />
        <path d="M0 0C0 0 10.2694 0 10.2694 0L10.2694 2.03371L6.34863 2.03371L6.34863 12.5982L3.92065 12.5982L3.92065 2.03371L0 2.03371C0 2.03371 0 0 0 0ZM11.9779 0C11.9779 0 14.7296 0 14.7296 0L18.9022 8.26082L23.0386 0L25.7903 0L25.7903 12.5982L23.5782 12.5982L23.5782 3.36552L19.6575 11.3024L18.1107 11.3024L14.1722 3.36552L14.1722 12.5982L11.9779 12.5982C11.9779 12.5982 11.9779 0 11.9779 0Z" fill="#FFFFFF" transform="translate(1382.21 168.357)" />
      </g>
    </g>
  </g>
</svg>