<?xml version="1.0" encoding="utf-8"?>
<svg width="256" height="256" viewBox="0 0 256 256" fill="none" xmlns="http://www.w3.org/2000/svg">
  <g>
    <path d="M20.935 179.975C34.8917 193.691 53.2465 200.554 75.9995 200.554C96.4067 200.554 113.413 195.808 127.018 186.306C140.622 176.804 148.48 163.967 150.592 147.777L118.925 147.777C117.283 155.519 112.65 161.677 105.027 166.249C97.4036 170.821 87.7278 173.112 75.9995 173.112C62.3946 173.112 51.4873 168.952 43.2775 160.623C35.0677 152.294 30.9627 140.969 30.9628 126.666L30.9628 108.368L151.999 108.368L151.999 73.8884C151.999 58.8706 148.832 45.8595 142.499 34.8368C136.166 23.814 127.311 15.2468 115.934 9.14442C104.558 3.0512 91.2463 0 75.9995 0C53.2465 0 34.8917 6.8629 20.935 20.5795C6.97834 34.3053 0 53.2447 0 77.4069L0 123.147C-3.8147e-06 147.309 6.97834 166.249 20.935 179.975L20.935 179.975ZM121.036 83.7385L30.963 83.7385L30.963 73.8886C30.963 58.6418 34.8919 46.8585 42.7499 38.5295C50.6079 30.2006 61.6911 26.0407 75.9997 26.0407C90.3082 26.0407 101.391 30.2006 109.249 38.5295C117.107 46.8585 121.036 58.6418 121.036 73.8886L121.036 83.7385L121.036 83.7385Z" fill="#FFFFFF" transform="translate(52 27.723)" />
  </g>
</svg>