<?xml version="1.0" encoding="utf-8"?>
<svg width="1024" height="1024" viewBox="0 0 1024 1024" fill="none" xmlns="http://www.w3.org/2000/svg">
  <g>
    <rect width="1024" height="1024" fill="#CE1616" fill-rule="evenodd" />
    <path d="M285.368 15.8984L285.368 125.71Q285.368 126.477 285.294 127.24Q285.22 128.003 285.074 128.755Q284.927 129.507 284.708 130.242Q284.49 130.976 284.202 131.687Q283.914 132.397 283.559 133.076Q283.204 133.755 282.785 134.397Q282.366 135.039 281.888 135.638Q281.409 136.236 280.875 136.786L154.089 267.346Q153.813 267.631 153.522 267.902Q153.231 268.173 152.927 268.429Q152.623 268.685 152.306 268.926Q151.99 269.166 151.661 269.391Q151.333 269.615 150.994 269.823Q150.655 270.031 150.307 270.222Q149.958 270.412 149.6 270.585Q149.242 270.758 148.876 270.913Q148.509 271.068 148.136 271.204Q147.762 271.341 147.383 271.458Q147.003 271.576 146.618 271.674Q146.232 271.772 145.843 271.851Q145.453 271.93 145.06 271.99Q144.667 272.049 144.271 272.089Q143.876 272.129 143.479 272.148Q143.081 272.168 142.684 272.168Q142.286 272.168 141.889 272.148Q141.492 272.129 141.097 272.089Q140.701 272.049 140.308 271.99Q139.915 271.93 139.525 271.851Q139.135 271.772 138.75 271.674Q138.365 271.576 137.985 271.458Q137.605 271.341 137.232 271.204Q136.858 271.068 136.492 270.913Q136.126 270.758 135.768 270.585Q135.41 270.412 135.061 270.222Q134.712 270.031 134.373 269.823Q134.034 269.615 133.706 269.391Q133.378 269.166 133.062 268.926Q132.745 268.685 132.441 268.429Q132.137 268.173 131.846 267.902Q131.555 267.631 131.278 267.346L4.49289 136.786Q3.95895 136.236 3.48037 135.638Q3.00179 135.039 2.58302 134.397Q2.16425 133.755 1.80916 133.076Q1.45408 132.397 1.16598 131.686Q0.877877 130.976 0.659431 130.242Q0.440984 129.507 0.294217 128.755Q0.14745 128.002 0.0737252 127.24Q0 126.477 0 125.71L0 15.8984Q0 15.5082 0.0191504 15.1183Q0.0383007 14.7285 0.0765553 14.3401Q0.11481 13.9517 0.172077 13.5657Q0.229343 13.1796 0.305484 12.7968Q0.381625 12.414 0.476456 12.0354Q0.571288 11.6568 0.684581 11.2834Q0.797875 10.9099 0.929358 10.5424Q1.06084 10.1749 1.2102 9.81437Q1.35955 9.45379 1.52642 9.10098Q1.69329 8.74817 1.87727 8.40396Q2.06125 8.05976 2.26189 7.72501Q2.46254 7.39025 2.67937 7.06574Q2.8962 6.74123 3.12869 6.42775Q3.36118 6.11427 3.60878 5.81258Q3.85637 5.51088 4.11847 5.2217Q4.38057 4.93252 4.65654 4.65654Q4.93252 4.38057 5.2217 4.11847Q5.51088 3.85637 5.81257 3.60878Q6.11427 3.36118 6.42775 3.12869Q6.74123 2.8962 7.06574 2.67937Q7.39025 2.46254 7.72501 2.26189Q8.05976 2.06125 8.40396 1.87727Q8.74817 1.69329 9.10098 1.52642Q9.45379 1.35955 9.81437 1.2102Q10.1749 1.06084 10.5424 0.929358Q10.9099 0.797875 11.2834 0.684581Q11.6568 0.571288 12.0354 0.476456Q12.414 0.381625 12.7968 0.305484Q13.1796 0.229343 13.5657 0.172077Q13.9517 0.11481 14.3401 0.0765553Q14.7285 0.0383007 15.1183 0.0191504Q15.5082 0 15.8984 0L269.469 0Q269.86 0 270.25 0.0191504Q270.639 0.0383007 271.028 0.0765553Q271.416 0.11481 271.802 0.172077Q272.188 0.229343 272.571 0.305484Q272.954 0.381625 273.332 0.476456Q273.711 0.571288 274.084 0.684581Q274.458 0.797875 274.825 0.929358Q275.193 1.06084 275.553 1.2102Q275.914 1.35955 276.267 1.52642Q276.62 1.69329 276.964 1.87727Q277.308 2.06125 277.643 2.26189Q277.978 2.46254 278.302 2.67937Q278.627 2.8962 278.94 3.12869Q279.254 3.36118 279.555 3.60878Q279.857 3.85637 280.146 4.11847Q280.435 4.38057 280.711 4.65654Q280.987 4.93252 281.249 5.2217Q281.512 5.51088 281.759 5.81257Q282.007 6.11427 282.239 6.42775Q282.472 6.74123 282.688 7.06574Q282.905 7.39025 283.106 7.72501Q283.307 8.05976 283.491 8.40396Q283.675 8.74817 283.841 9.10098Q284.008 9.45379 284.158 9.81437Q284.307 10.1749 284.438 10.5424Q284.57 10.9099 284.683 11.2834Q284.797 11.6568 284.891 12.0354Q284.986 12.414 285.062 12.7968Q285.138 13.1796 285.196 13.5657Q285.253 13.9517 285.291 14.3401Q285.33 14.7285 285.349 15.1183Q285.368 15.5082 285.368 15.8984Z" fill="#FFFFFF" fill-rule="evenodd" transform="translate(369.315 552.909)" />
    <path d="M108.052 117.718L108.052 153.8Q108.052 154.389 108.008 154.977Q107.965 155.565 107.878 156.147Q107.791 156.73 107.661 157.305Q107.531 157.88 107.359 158.443Q107.187 159.007 106.973 159.556Q106.76 160.105 106.507 160.637Q106.253 161.169 105.961 161.681Q105.669 162.193 105.34 162.681Q105.011 163.17 104.646 163.633Q104.282 164.096 103.884 164.531Q103.487 164.966 103.058 165.37Q102.629 165.774 102.172 166.145Q101.714 166.516 101.23 166.853Q100.747 167.189 100.239 167.489Q99.7319 167.789 99.2038 168.05Q98.6757 168.311 98.1297 168.533Q97.5836 168.754 97.0227 168.935Q96.4618 169.115 95.8891 169.254Q95.3164 169.392 94.735 169.488Q94.1536 169.583 93.5667 169.636Q92.9798 169.688 92.3906 169.697Q91.8015 169.706 91.2133 169.671Q90.6251 169.636 90.0411 169.558Q89.4571 169.479 88.8805 169.358Q88.3039 169.237 87.7379 169.073Q87.1718 168.91 86.6195 168.704Q86.0671 168.499 85.5314 168.254Q84.9957 168.008 84.4797 167.724Q83.9637 167.44 83.4701 167.118Q82.9765 166.796 82.5081 166.439Q82.0397 166.081 81.5991 165.69Q81.1584 165.299 80.7479 164.876L4.4929 86.3511Q3.95896 85.8013 3.48038 85.2026Q3.0018 84.604 2.58303 83.962Q2.16425 83.3201 1.80917 82.6409Q1.45408 81.9617 1.16598 81.2515Q0.87788 80.5412 0.659433 79.8066Q0.440985 79.0719 0.294218 78.3197Q0.147451 77.5674 0.0737254 76.8046Q0 76.0417 0 75.2752L0 39.1926Q0 38.6034 0.0436152 38.0158Q0.0872303 37.4282 0.174221 36.8454Q0.261212 36.2626 0.391102 35.6879Q0.520992 35.1132 0.693067 34.5496Q0.865143 33.9861 1.07846 33.4369Q1.29178 32.8876 1.54517 32.3556Q1.79855 31.8237 2.09062 31.312Q2.38269 30.8002 2.71184 30.3115Q3.04099 29.8228 3.40541 29.3598Q3.76983 28.8968 4.16753 28.462Q4.56522 28.0272 4.99401 27.6231Q5.42279 27.219 5.88031 26.8477Q6.33784 26.4764 6.82159 26.14Q7.30534 25.8036 7.81267 25.5039Q8.31999 25.2042 8.84811 24.9429Q9.37623 24.6816 9.92224 24.4602Q10.4682 24.2387 11.0292 24.0582Q11.5901 23.8777 12.1628 23.7393Q12.7355 23.6008 13.3169 23.5052Q13.8983 23.4095 14.4852 23.3571Q15.0721 23.3047 15.6612 23.2959Q16.2504 23.2872 16.8386 23.322Q17.4268 23.3568 18.0108 23.4351Q18.5948 23.5134 19.1714 23.6347Q19.748 23.756 20.314 23.9197Q20.8801 24.0833 21.4324 24.2884Q21.9848 24.4935 22.5205 24.7389Q23.0562 24.9844 23.5722 25.2688Q24.0883 25.5532 24.5818 25.875Q25.0754 26.1968 25.5438 26.5543Q26.0122 26.9118 26.4528 27.3029Q26.8935 27.6941 27.304 28.1168L103.559 106.642Q104.093 107.192 104.572 107.79Q105.05 108.389 105.469 109.031Q105.888 109.673 106.243 110.352Q106.598 111.031 106.886 111.741Q107.174 112.452 107.392 113.186Q107.611 113.921 107.758 114.673Q107.904 115.425 107.978 116.188Q108.052 116.951 108.052 117.718Z" fill="#FFFFFF" fill-rule="evenodd" transform="translate(192 420.243)" />
    <path d="M4.49292 106.642L80.7482 28.1168Q81.1587 27.6941 81.5993 27.3029Q82.04 26.9118 82.5084 26.5543Q82.9768 26.1968 83.4703 25.875Q83.9639 25.5532 84.4799 25.2688Q84.996 24.9844 85.5317 24.7389Q86.0673 24.4935 86.6197 24.2884Q87.1721 24.0833 87.7381 23.9197Q88.3042 23.756 88.8808 23.6347Q89.4574 23.5134 90.0414 23.4351Q90.6254 23.3568 91.2136 23.322Q91.8018 23.2872 92.3909 23.2959Q92.9801 23.3047 93.567 23.3571Q94.1539 23.4095 94.7353 23.5052Q95.3167 23.6008 95.8894 23.7393Q96.4621 23.8777 97.023 24.0582Q97.5839 24.2387 98.1299 24.4601Q98.6759 24.6816 99.2041 24.9429Q99.7322 25.2042 100.24 25.5039Q100.747 25.8036 101.231 26.14Q101.714 26.4764 102.172 26.8477Q102.629 27.219 103.058 27.6231Q103.487 28.0272 103.885 28.462Q104.282 28.8968 104.647 29.3598Q105.011 29.8228 105.34 30.3115Q105.669 30.8002 105.962 31.312Q106.254 31.8237 106.507 32.3556Q106.76 32.8876 106.974 33.4369Q107.187 33.9861 107.359 34.5496Q107.531 35.1132 107.661 35.6879Q107.791 36.2626 107.878 36.8454Q107.965 37.4282 108.009 38.0158Q108.052 38.6034 108.052 39.1926L108.052 75.2755Q108.052 76.0419 107.978 76.8048Q107.905 77.5677 107.758 78.32Q107.611 79.0722 107.393 79.8068Q107.174 80.5415 106.886 81.2517Q106.598 81.9619 106.243 82.6412Q105.888 83.3204 105.469 83.9623Q105.05 84.6042 104.572 85.2029Q104.093 85.8015 103.559 86.3513L27.304 164.876Q26.8935 165.299 26.4528 165.69Q26.0122 166.082 25.5438 166.439Q25.0754 166.796 24.5818 167.118Q24.0882 167.44 23.5722 167.725Q23.0561 168.009 22.5205 168.254Q21.9848 168.5 21.4324 168.705Q20.88 168.91 20.314 169.074Q19.748 169.237 19.1714 169.359Q18.5948 169.48 18.0108 169.558Q17.4268 169.636 16.8386 169.671Q16.2504 169.706 15.6612 169.697Q15.0721 169.689 14.4852 169.636Q13.8983 169.584 13.3169 169.488Q12.7355 169.392 12.1628 169.254Q11.59 169.116 11.0291 168.935Q10.4682 168.755 9.92222 168.533Q9.37621 168.312 8.8481 168.05Q8.31998 167.789 7.81266 167.489Q7.30533 167.19 6.82158 166.853Q6.33783 166.517 5.88031 166.146Q5.42278 165.774 4.994 165.37Q4.56521 164.966 4.16752 164.531Q3.76983 164.096 3.40541 163.633Q3.04099 163.17 2.71184 162.682Q2.38269 162.193 2.09062 161.681Q1.79855 161.17 1.54516 160.638Q1.29178 160.106 1.07846 159.556Q0.865141 159.007 0.693066 158.444Q0.520991 157.88 0.391101 157.305Q0.261212 156.731 0.174221 156.148Q0.0872302 155.565 0.0436151 154.978Q0 154.39 0 153.801L0 117.718Q0 116.951 0.0737257 116.189Q0.147451 115.426 0.294219 114.673Q0.440987 113.921 0.659435 113.187Q0.877883 112.452 1.16599 111.742Q1.45409 111.031 1.80918 110.352Q2.16426 109.673 2.58304 109.031Q3.00181 108.389 3.48039 107.791Q3.95897 107.192 4.49292 106.642Z" fill="#FFFFFF" fill-rule="evenodd" transform="translate(723.948 420.243)" />
    <path d="M14.9514 167.888L128.513 284.831Q129.067 285.402 129.676 285.914Q130.285 286.427 130.941 286.876Q131.598 287.325 132.296 287.707Q132.994 288.088 133.727 288.398Q134.46 288.708 135.22 288.943Q135.98 289.178 136.76 289.336Q137.54 289.494 138.331 289.574Q139.123 289.653 139.919 289.653L452.416 289.653Q453.211 289.653 454.003 289.574Q454.795 289.494 455.575 289.336Q456.354 289.178 457.114 288.943Q457.875 288.708 458.607 288.398Q459.34 288.088 460.038 287.707Q460.737 287.325 461.393 286.876Q462.05 286.427 462.659 285.914Q463.267 285.402 463.821 284.831L577.395 167.876Q577.718 167.543 578.021 167.192Q578.324 166.842 578.607 166.474Q578.889 166.106 579.149 165.722Q579.409 165.338 579.646 164.94Q579.884 164.542 580.097 164.131Q580.311 163.719 580.501 163.296Q580.69 162.873 580.854 162.44Q581.019 162.006 581.158 161.564Q581.297 161.122 581.41 160.672Q581.523 160.222 581.609 159.767Q581.696 159.311 581.755 158.852Q581.815 158.392 581.848 157.93Q581.881 157.467 581.887 157.004Q581.893 156.54 581.872 156.077Q581.851 155.614 581.803 155.153Q581.755 154.692 581.68 154.234Q581.605 153.777 581.504 153.324Q581.402 152.872 581.275 152.426Q581.147 151.981 580.994 151.543Q580.841 151.106 580.662 150.678Q580.484 150.25 580.281 149.833Q580.078 149.417 579.85 149.012Q579.623 148.608 579.373 148.218Q579.123 147.828 578.85 147.453Q578.578 147.078 578.284 146.719Q577.99 146.361 577.675 146.02Q577.361 145.679 577.027 145.357Q576.694 145.036 576.342 144.734Q575.99 144.432 575.621 144.151Q575.252 143.87 574.868 143.611Q574.483 143.352 574.084 143.116Q573.685 142.88 573.273 142.668L303.727 3.75006Q303.306 3.53355 302.874 3.34238Q302.442 3.15121 301.999 2.98605Q301.556 2.82089 301.105 2.68233Q300.653 2.54376 300.193 2.43228Q299.734 2.3208 299.269 2.2368Q298.804 2.15279 298.335 2.09656Q297.866 2.04033 297.394 2.01208Q296.922 1.98382 296.449 1.98364Q295.977 1.98345 295.505 2.01134Q295.033 2.03923 294.564 2.0951Q294.095 2.15096 293.63 2.2346Q293.164 2.31824 292.705 2.42937Q292.246 2.54049 291.794 2.67871Q291.342 2.81692 290.899 2.98173Q290.456 3.14655 290.024 3.33738Q289.591 3.52822 289.171 3.7444L19.0846 142.675Q18.6722 142.887 18.2729 143.123Q17.8735 143.359 17.4886 143.617Q17.1037 143.876 16.7345 144.157Q16.3653 144.438 16.0131 144.739Q15.6609 145.041 15.3269 145.363Q14.9929 145.685 14.6782 146.025Q14.3635 146.366 14.0693 146.724Q13.775 147.083 13.5021 147.458Q13.2292 147.833 12.9786 148.223Q12.728 148.613 12.5007 149.018Q12.2733 149.422 12.0698 149.838Q11.8664 150.255 11.6876 150.683Q11.5088 151.111 11.3552 151.549Q11.2017 151.986 11.0739 152.432Q10.9461 152.878 10.8445 153.331Q10.7429 153.783 10.6679 154.241Q10.5929 154.698 10.5447 155.16Q10.4965 155.621 10.4752 156.084Q10.454 156.547 10.4598 157.011Q10.4655 157.475 10.4984 157.938Q10.5312 158.4 10.5909 158.86Q10.6506 159.32 10.7371 159.776Q10.8235 160.231 10.9364 160.681Q11.0492 161.131 11.1881 161.574Q11.327 162.016 11.4914 162.45Q11.6559 162.883 11.8453 163.307Q12.0347 163.73 12.2485 164.141Q12.4623 164.553 12.6998 164.951Q12.9372 165.35 13.1974 165.734Q13.4577 166.118 13.7398 166.486Q14.022 166.854 14.3252 167.205Q14.6283 167.556 14.9514 167.888Z" fill="#FFFFFF" fill-rule="evenodd" transform="translate(215.55 192)" />
  </g>
</svg>