<?xml version="1.0" encoding="utf-8"?>
<svg width="2815.61" height="454.95" viewBox="0 0 2815.61 454.95" fill="none" xmlns="http://www.w3.org/2000/svg">
  <path d="M173.25 45.45C198.45 45.45 221.55 49.5 242.55 57.6C263.55 65.7 281.85 77.1 297.45 91.8C313.05 106.5 325.125 123.825 333.675 143.775C342.225 163.725 346.5 185.55 346.5 209.25C346.5 232.95 342.225 254.925 333.675 275.175C325.125 295.425 313.05 312.975 297.45 327.825C281.85 342.675 263.55 354.225 242.55 362.475C221.55 370.725 198.45 374.85 173.25 374.85C148.05 374.85 124.95 370.725 103.95 362.475C82.95 354.225 64.6499 342.675 49.05 327.825C33.45 312.975 21.375 295.5 12.825 275.4C4.2749 255.3 0 233.25 0 209.25C0 185.25 4.2749 163.275 12.825 143.325C21.375 123.375 33.45 106.125 49.05 91.575C64.6499 77.025 82.95 65.7 103.95 57.6C124.95 49.5 148.05 45.45 173.25 45.45L173.25 45.45ZM174.6 132.3C165.6 132.3 156.975 134.175 148.725 137.925C140.475 141.675 133.275 147.075 127.125 154.125C120.975 161.175 116.1 169.35 112.5 178.65C108.9 187.95 107.1 198.3 107.1 209.7C107.1 220.8 108.9 231.15 112.5 240.75C116.1 250.35 121.05 258.675 127.35 265.725C133.65 272.775 140.85 278.25 148.95 282.15C157.05 286.05 165.6 288 174.6 288C183.6 288 192 286.05 199.8 282.15C207.6 278.25 214.5 272.775 220.5 265.725C226.5 258.675 231.15 250.35 234.45 240.75C237.75 231.15 239.4 220.8 239.4 209.7C239.4 198.3 237.75 187.95 234.45 178.65C231.15 169.35 226.5 161.175 220.5 154.125C214.5 147.075 207.6 141.675 199.8 137.925C192 134.175 183.6 132.3 174.6 132.3L174.6 132.3ZM544.05 117.9C566.85 117.9 586.725 123.15 603.675 133.65C620.625 144.15 633.75 159 643.05 178.2C652.35 197.4 657 220.05 657 246.15C657 271.35 652.5 293.325 643.5 312.075C634.5 330.825 621.75 345.375 605.25 355.725C588.75 366.075 569.25 371.25 546.75 371.25C527.55 371.25 510.75 366.075 496.35 355.725C481.95 345.375 470.775 330.75 462.825 311.85C454.875 292.95 450.9 270.9 450.9 245.7C450.9 219.9 454.725 197.4 462.375 178.2C470.025 159 480.825 144.15 494.775 133.65C508.725 123.15 525.15 117.9 544.05 117.9L544.05 117.9ZM517.95 195.75C510.75 195.75 504.375 197.7 498.825 201.6C493.275 205.5 489 211.05 486 218.25C483 225.45 481.5 233.85 481.5 243.45C481.5 253.05 483 261.45 486 268.65C489 275.85 493.275 281.4 498.825 285.3C504.375 289.2 510.75 291.15 517.95 291.15C525.45 291.15 531.975 289.2 537.525 285.3C543.075 281.4 547.35 275.85 550.35 268.65C553.35 261.45 554.85 253.05 554.85 243.45C554.85 233.85 553.35 225.45 550.35 218.25C547.35 211.05 543.075 205.5 537.525 201.6C531.975 197.7 525.45 195.75 517.95 195.75L517.95 195.75ZM380.25 121.5L481.5 121.5L481.5 454.95L380.25 454.95L380.25 121.5ZM831.6 220.5C832.2 213.6 831.3 207.525 828.9 202.275C826.5 197.025 823.05 192.9 818.55 189.9C814.05 186.9 808.8 185.4 802.8 185.4C795.3 185.4 789 187.8 783.9 192.6C778.8 197.4 774.975 203.925 772.425 212.175C769.875 220.425 768.6 229.65 768.6 239.85C768.6 252.15 770.475 262.5 774.225 270.9C777.975 279.3 783.225 285.675 789.975 290.025C796.725 294.375 804.6 296.55 813.6 296.55C831.3 296.55 847.95 289.2 863.55 274.5L916.2 326.25C903.3 340.65 887.475 351.75 868.725 359.55C849.975 367.35 828.6 371.25 804.6 371.25C776.7 371.25 752.7 366.075 732.6 355.725C712.5 345.375 697.125 330.75 686.475 311.85C675.825 292.95 670.5 270.9 670.5 245.7C670.5 219.6 675.975 197.025 686.925 177.975C697.875 158.925 713.175 144.15 732.825 133.65C752.475 123.15 775.5 117.9 801.9 117.9C830.7 117.9 855.15 124.05 875.25 136.35C895.35 148.65 910.425 165.975 920.475 188.325C930.525 210.675 934.65 237 932.85 267.3L755.55 267.3L755.55 220.5L831.6 220.5ZM1127.7 239.85C1127.7 229.35 1125 221.1 1119.6 215.1C1114.2 209.1 1107.15 206.1 1098.45 206.1C1088.55 206.1 1080.67 209.7 1074.83 216.9C1068.98 224.1 1066.05 233.7 1066.05 245.7L1043.55 245.7C1043.55 219.6 1047.45 196.875 1055.25 177.525C1063.05 158.175 1074.23 143.25 1088.77 132.75C1103.33 122.25 1120.65 117 1140.75 117C1158.15 117 1173.45 120.825 1186.65 128.475C1199.85 136.125 1210.2 147 1217.7 161.1C1225.2 175.2 1228.95 191.7 1228.95 210.6L1228.95 367.65L1127.7 367.65L1127.7 239.85ZM964.8 121.5L1066.05 121.5L1066.05 367.65L964.8 367.65L964.8 121.5ZM1417.5 52.2C1458.6 52.2 1490.4 62.025 1512.9 81.675C1535.4 101.325 1546.65 129.15 1546.65 165.15C1546.65 203.25 1535.4 232.875 1512.9 254.025C1490.4 275.175 1458.6 285.75 1417.5 285.75L1328.4 285.75L1373.85 240.3L1373.85 367.65L1269.45 367.65L1269.45 52.2L1417.5 52.2ZM1412.1 206.55C1423.5 206.55 1432.27 203.175 1438.42 196.425C1444.58 189.675 1447.65 180.3 1447.65 168.3C1447.65 156.6 1444.58 147.525 1438.42 141.075C1432.27 134.625 1423.5 131.4 1412.1 131.4L1328.4 131.4L1373.85 85.95L1373.85 252L1328.4 206.55L1412.1 206.55ZM1756.8 208.35C1741.8 205.95 1728.6 206.1 1717.2 208.8C1705.8 211.5 1697.02 216.375 1690.88 223.425C1684.72 230.475 1681.65 239.4 1681.65 250.2L1659.15 245.7C1659.15 219.6 1663.2 196.875 1671.3 177.525C1679.4 158.175 1690.73 143.25 1705.27 132.75C1719.82 122.25 1737 117 1756.8 117L1756.8 208.35ZM1580.4 121.5L1681.65 121.5L1681.65 367.65L1580.4 367.65L1580.4 121.5ZM1907.1 117.9C1935.3 117.9 1959.83 123.075 1980.67 133.425C2001.52 143.775 2017.65 158.4 2029.05 177.3C2040.45 196.2 2046.15 218.55 2046.15 244.35C2046.15 269.85 2040.45 292.125 2029.05 311.175C2017.65 330.225 2001.52 345 1980.67 355.5C1959.83 366 1935.3 371.25 1907.1 371.25C1878.9 371.25 1854.38 366 1833.52 355.5C1812.67 345 1796.55 330.225 1785.15 311.175C1773.75 292.125 1768.05 269.85 1768.05 244.35C1768.05 218.55 1773.75 196.2 1785.15 177.3C1796.55 158.4 1812.67 143.775 1833.52 133.425C1854.38 123.075 1878.9 117.9 1907.1 117.9L1907.1 117.9ZM1907.1 198C1899.6 198 1893.08 199.95 1887.52 203.85C1881.98 207.75 1877.7 213.3 1874.7 220.5C1871.7 227.7 1870.2 236.1 1870.2 245.7C1870.2 255.3 1871.7 263.7 1874.7 270.9C1877.7 278.1 1881.98 283.65 1887.52 287.55C1893.08 291.45 1899.6 293.4 1907.1 293.4C1914.6 293.4 1921.13 291.45 1926.67 287.55C1932.22 283.65 1936.5 278.1 1939.5 270.9C1942.5 263.7 1944 255.3 1944 245.7C1944 236.1 1942.5 227.7 1939.5 220.5C1936.5 213.3 1932.22 207.75 1926.67 203.85C1921.13 199.95 1914.6 198 1907.1 198L1907.1 198ZM2091.15 112.95C2091.15 95.85 2095.35 81 2103.75 68.4C2112.15 55.8 2124 46.05 2139.3 39.15C2154.6 32.2501 2172.6 28.95 2193.3 29.25C2202.9 29.25 2212.65 30 2222.55 31.5C2232.45 33 2241.75 35.1 2250.45 37.8L2240.55 112.5C2235.75 111 2231.25 109.8 2227.05 108.9C2222.85 108 2218.95 107.55 2215.35 107.55C2210.55 107.25 2206.42 107.925 2202.97 109.575C2199.52 111.225 2196.83 113.625 2194.88 116.775C2192.92 119.925 2191.95 123.75 2191.95 128.25L2191.95 367.65L2091.15 367.65L2091.15 112.95ZM2057.4 135L2239.65 135L2239.65 198.9L2057.4 198.9L2057.4 135ZM2264.85 121.5L2366.1 121.5L2366.1 367.65L2264.85 367.65L2264.85 121.5ZM2315.7 0C2330.7 0 2343 4.79999 2352.6 14.4C2362.2 24.0001 2367 36.3 2367 51.3C2367 66.3 2362.2 78.6 2352.6 88.2C2343 97.8 2330.7 102.6 2315.7 102.6C2300.7 102.6 2288.4 97.8 2278.8 88.2C2269.2 78.6 2264.4 66.3 2264.4 51.3C2264.4 36.3 2269.2 24.0001 2278.8 14.4C2288.4 4.80005 2300.7 6.10352e-05 2315.7 0L2315.7 0ZM2417.85 33.75L2519.1 33.75L2519.1 367.65L2417.85 367.65L2417.85 33.75ZM2713.95 220.5C2714.55 213.6 2713.65 207.525 2711.25 202.275C2708.85 197.025 2705.4 192.9 2700.9 189.9C2696.4 186.9 2691.15 185.4 2685.15 185.4C2677.65 185.4 2671.35 187.8 2666.25 192.6C2661.15 197.4 2657.33 203.925 2654.77 212.175C2652.22 220.425 2650.95 229.65 2650.95 239.85C2650.95 252.15 2652.83 262.5 2656.58 270.9C2660.33 279.3 2665.58 285.675 2672.33 290.025C2679.08 294.375 2686.95 296.55 2695.95 296.55C2713.65 296.55 2730.3 289.2 2745.9 274.5L2798.55 326.25C2785.65 340.65 2769.82 351.75 2751.08 359.55C2732.33 367.35 2710.95 371.25 2686.95 371.25C2659.05 371.25 2635.05 366.075 2614.95 355.725C2594.85 345.375 2579.47 330.75 2568.83 311.85C2558.17 292.95 2552.85 270.9 2552.85 245.7C2552.85 219.6 2558.33 197.025 2569.27 177.975C2580.22 158.925 2595.52 144.15 2615.17 133.65C2634.83 123.15 2657.85 117.9 2684.25 117.9C2713.05 117.9 2737.5 124.05 2757.6 136.35C2777.7 148.65 2792.77 165.975 2802.83 188.325C2812.88 210.675 2817 237 2815.2 267.3L2637.9 267.3L2637.9 220.5L2713.95 220.5Z" fill="#FFFFFF" />
</svg>