<?xml version="1.0" encoding="utf-8"?>
<svg width="3757.832" height="640.091" viewBox="0 0 3757.832 640.091" fill="none" xmlns="http://www.w3.org/2000/svg">
  <g>
    <path d="M285.368 15.8984L285.368 125.71Q285.368 126.477 285.294 127.24Q285.22 128.003 285.074 128.755Q284.927 129.507 284.708 130.242Q284.49 130.976 284.202 131.687Q283.914 132.397 283.559 133.076Q283.204 133.755 282.785 134.397Q282.366 135.039 281.888 135.638Q281.409 136.236 280.875 136.786L154.089 267.346Q153.812 267.631 153.521 267.902Q153.231 268.173 152.927 268.429Q152.622 268.685 152.306 268.926Q151.989 269.166 151.661 269.391Q151.333 269.615 150.994 269.823Q150.655 270.031 150.306 270.222Q149.958 270.412 149.6 270.585Q149.242 270.758 148.875 270.913Q148.509 271.068 148.136 271.204Q147.762 271.341 147.382 271.458Q147.003 271.576 146.617 271.674Q146.232 271.772 145.843 271.851Q145.453 271.93 145.06 271.99Q144.667 272.049 144.271 272.089Q143.876 272.129 143.478 272.148Q143.081 272.168 142.684 272.168Q142.286 272.168 141.889 272.148Q141.492 272.129 141.097 272.089Q140.701 272.049 140.308 271.99Q139.915 271.93 139.525 271.851Q139.135 271.772 138.75 271.674Q138.365 271.576 137.985 271.458Q137.605 271.341 137.232 271.204Q136.858 271.068 136.492 270.913Q136.126 270.758 135.768 270.585Q135.41 270.412 135.061 270.222Q134.712 270.031 134.373 269.823Q134.034 269.615 133.706 269.391Q133.378 269.166 133.062 268.926Q132.745 268.685 132.441 268.429Q132.137 268.173 131.846 267.902Q131.555 267.631 131.278 267.346L4.49292 136.786Q3.95897 136.236 3.48039 135.638Q3.00181 135.039 2.58304 134.397Q2.16426 133.755 1.80917 133.076Q1.45409 132.397 1.16599 131.686Q0.877883 130.976 0.659435 130.242Q0.440987 129.507 0.294219 128.755Q0.147451 128.002 0.0737257 127.24Q0 126.477 0 125.71L0 15.8984Q0 15.5082 0.0191504 15.1183Q0.0383007 14.7285 0.0765553 14.3401Q0.11481 13.9517 0.172077 13.5657Q0.229343 13.1796 0.305484 12.7968Q0.381625 12.414 0.476456 12.0354Q0.571288 11.6568 0.684581 11.2834Q0.797875 10.9099 0.929358 10.5424Q1.06084 10.1749 1.2102 9.81437Q1.35955 9.45379 1.52642 9.10098Q1.69329 8.74817 1.87727 8.40396Q2.06125 8.05976 2.26189 7.72501Q2.46254 7.39025 2.67937 7.06574Q2.8962 6.74123 3.12869 6.42775Q3.36118 6.11427 3.60878 5.81258Q3.85637 5.51088 4.11847 5.2217Q4.38057 4.93252 4.65654 4.65654Q4.93252 4.38057 5.2217 4.11847Q5.51088 3.85637 5.81257 3.60878Q6.11427 3.36118 6.42775 3.12869Q6.74123 2.8962 7.06574 2.67937Q7.39025 2.46254 7.72501 2.26189Q8.05976 2.06125 8.40396 1.87727Q8.74817 1.69329 9.10098 1.52642Q9.45379 1.35955 9.81437 1.2102Q10.1749 1.06084 10.5424 0.929358Q10.9099 0.797875 11.2834 0.684581Q11.6568 0.571288 12.0354 0.476456Q12.414 0.381625 12.7968 0.305484Q13.1796 0.229343 13.5657 0.172077Q13.9517 0.11481 14.3401 0.0765553Q14.7285 0.0383007 15.1183 0.0191504Q15.5082 0 15.8984 0L269.469 0Q269.86 0 270.25 0.0191504Q270.639 0.0383007 271.028 0.0765553Q271.416 0.11481 271.802 0.172077Q272.188 0.229343 272.571 0.305484Q272.954 0.381625 273.332 0.476456Q273.711 0.571288 274.085 0.684581Q274.458 0.797875 274.825 0.929358Q275.193 1.06084 275.554 1.2102Q275.914 1.35955 276.267 1.52642Q276.62 1.69329 276.964 1.87727Q277.308 2.06125 277.643 2.26189Q277.978 2.46254 278.302 2.67937Q278.627 2.8962 278.94 3.12869Q279.254 3.36118 279.555 3.60878Q279.857 3.85637 280.146 4.11847Q280.435 4.38057 280.711 4.65654Q280.987 4.93252 281.249 5.2217Q281.512 5.51088 281.759 5.81257Q282.007 6.11427 282.239 6.42775Q282.472 6.74123 282.689 7.06574Q282.905 7.39025 283.106 7.72501Q283.307 8.05976 283.491 8.40396Q283.675 8.74817 283.841 9.10098Q284.008 9.45379 284.158 9.81437Q284.307 10.1749 284.439 10.5424Q284.57 10.9099 284.683 11.2834Q284.797 11.6568 284.891 12.0354Q284.986 12.414 285.062 12.7968Q285.139 13.1796 285.196 13.5657Q285.253 13.9517 285.291 14.3401Q285.33 14.7285 285.349 15.1183Q285.368 15.5082 285.368 15.8984Z" fill="#FFFFFF" fill-rule="evenodd" transform="translate(177 361)" />
    <path d="M108.052 117.718L108.052 153.8Q108.052 154.389 108.008 154.977Q107.965 155.565 107.878 156.147Q107.791 156.73 107.661 157.305Q107.531 157.88 107.359 158.443Q107.187 159.007 106.974 159.556Q106.76 160.105 106.507 160.637Q106.253 161.169 105.961 161.681Q105.669 162.193 105.34 162.681Q105.011 163.17 104.647 163.633Q104.282 164.096 103.884 164.531Q103.487 164.966 103.058 165.37Q102.629 165.774 102.172 166.145Q101.714 166.516 101.23 166.853Q100.747 167.189 100.239 167.489Q99.7319 167.789 99.2038 168.05Q98.6757 168.311 98.1297 168.533Q97.5837 168.754 97.0228 168.935Q96.4619 169.115 95.8891 169.254Q95.3164 169.392 94.735 169.488Q94.1536 169.583 93.5667 169.636Q92.9798 169.688 92.3906 169.697Q91.8015 169.706 91.2133 169.671Q90.6251 169.636 90.0411 169.558Q89.4571 169.479 88.8805 169.358Q88.3039 169.237 87.7378 169.073Q87.1718 168.91 86.6194 168.704Q86.067 168.499 85.5313 168.254Q84.9957 168.008 84.4796 167.724Q83.9636 167.44 83.47 167.118Q82.9764 166.796 82.508 166.439Q82.0396 166.081 81.5989 165.69Q81.1583 165.299 80.7478 164.876L4.49292 86.3511Q3.95897 85.8012 3.48039 85.2026Q3.00181 84.6039 2.58304 83.962Q2.16426 83.3201 1.80917 82.6409Q1.45409 81.9617 1.16599 81.2515Q0.877883 80.5412 0.659435 79.8066Q0.440987 79.0719 0.294219 78.3197Q0.147451 77.5675 0.0737257 76.8046Q0 76.0417 0 75.2753L0 39.1926Q0 38.6034 0.0436151 38.0158Q0.0872302 37.4282 0.174221 36.8454Q0.261212 36.2627 0.391102 35.6879Q0.520991 35.1132 0.693066 34.5497Q0.865142 33.9861 1.07846 33.4369Q1.29178 32.8876 1.54516 32.3557Q1.79855 31.8237 2.09062 31.312Q2.38269 30.8002 2.71184 30.3115Q3.04099 29.8228 3.40541 29.3598Q3.76983 28.8968 4.16752 28.462Q4.56522 28.0272 4.994 27.6231Q5.42278 27.219 5.88031 26.8477Q6.33783 26.4764 6.82158 26.14Q7.30533 25.8036 7.81266 25.5039Q8.31998 25.2042 8.8481 24.9429Q9.37622 24.6816 9.92222 24.4602Q10.4682 24.2387 11.0291 24.0582Q11.59 23.8777 12.1628 23.7393Q12.7355 23.6008 13.3169 23.5052Q13.8983 23.4095 14.4852 23.3571Q15.0721 23.3047 15.6612 23.2959Q16.2504 23.2871 16.8386 23.322Q17.4268 23.3568 18.0108 23.4351Q18.5948 23.5134 19.1714 23.6347Q19.748 23.756 20.314 23.9196Q20.88 24.0833 21.4324 24.2884Q21.9848 24.4935 22.5205 24.7389Q23.0561 24.9843 23.5722 25.2687Q24.0882 25.5531 24.5818 25.875Q25.0754 26.1968 25.5438 26.5543Q26.0122 26.9117 26.4528 27.3029Q26.8935 27.6941 27.304 28.1168L103.559 106.642Q104.093 107.192 104.572 107.79Q105.05 108.389 105.469 109.031Q105.888 109.673 106.243 110.352Q106.598 111.031 106.886 111.741Q107.174 112.452 107.393 113.186Q107.611 113.921 107.758 114.673Q107.905 115.425 107.978 116.188Q108.052 116.951 108.052 117.718Z" fill="#FFFFFF" fill-rule="evenodd" transform="translate(0 228)" />
    <path d="M4.49292 106.642L80.7483 28.1168Q81.1588 27.6941 81.5994 27.3029Q82.0401 26.9117 82.5085 26.5543Q82.9769 26.1968 83.4704 25.875Q83.964 25.5531 84.4801 25.2687Q84.9961 24.9843 85.5318 24.7389Q86.0674 24.4935 86.6198 24.2884Q87.1722 24.0833 87.7382 23.9196Q88.3043 23.756 88.8809 23.6347Q89.4575 23.5134 90.0415 23.4351Q90.6255 23.3568 91.2137 23.322Q91.8018 23.2871 92.391 23.2959Q92.9802 23.3047 93.5671 23.3571Q94.1539 23.4095 94.7353 23.5052Q95.3167 23.6008 95.8895 23.7393Q96.4622 23.8777 97.0231 24.0582Q97.584 24.2387 98.13 24.4601Q98.676 24.6816 99.2041 24.9429Q99.7323 25.2042 100.24 25.5039Q100.747 25.8036 101.231 26.14Q101.714 26.4764 102.172 26.8477Q102.629 27.219 103.058 27.6231Q103.487 28.0272 103.885 28.462Q104.282 28.8968 104.647 29.3598Q105.011 29.8228 105.34 30.3115Q105.67 30.8002 105.962 31.312Q106.254 31.8237 106.507 32.3557Q106.76 32.8876 106.974 33.4369Q107.187 33.9861 107.359 34.5497Q107.531 35.1132 107.661 35.6879Q107.791 36.2627 107.878 36.8454Q107.965 37.4282 108.009 38.0158Q108.052 38.6034 108.052 39.1926L108.052 75.2755Q108.052 76.0419 107.979 76.8048Q107.905 77.5677 107.758 78.3199Q107.611 79.0722 107.393 79.8068Q107.174 80.5415 106.886 81.2517Q106.598 81.9619 106.243 82.6411Q105.888 83.3204 105.469 83.9623Q105.05 84.6042 104.572 85.2028Q104.093 85.8015 103.559 86.3513L27.304 164.877Q26.8935 165.299 26.4528 165.69Q26.0122 166.082 25.5438 166.439Q25.0754 166.797 24.5818 167.118Q24.0882 167.44 23.5722 167.725Q23.0561 168.009 22.5205 168.254Q21.9848 168.5 21.4324 168.705Q20.88 168.91 20.314 169.074Q19.748 169.237 19.1714 169.359Q18.5948 169.48 18.0108 169.558Q17.4268 169.636 16.8386 169.671Q16.2504 169.706 15.6612 169.697Q15.0721 169.689 14.4852 169.636Q13.8983 169.584 13.3169 169.488Q12.7355 169.392 12.1628 169.254Q11.59 169.116 11.0291 168.935Q10.4682 168.755 9.92222 168.533Q9.37621 168.312 8.8481 168.05Q8.31998 167.789 7.81266 167.489Q7.30533 167.19 6.82158 166.853Q6.33783 166.517 5.88031 166.146Q5.42278 165.774 4.994 165.37Q4.56521 164.966 4.16752 164.531Q3.76983 164.096 3.40541 163.633Q3.04099 163.17 2.71184 162.682Q2.38269 162.193 2.09062 161.681Q1.79855 161.17 1.54516 160.638Q1.29178 160.106 1.07846 159.556Q0.865141 159.007 0.693066 158.444Q0.520991 157.88 0.391101 157.305Q0.261212 156.731 0.174221 156.148Q0.0872302 155.565 0.0436151 154.977Q0 154.39 0 153.801L0 117.718Q0 116.951 0.0737257 116.189Q0.147451 115.426 0.294219 114.673Q0.440987 113.921 0.659435 113.187Q0.877883 112.452 1.16599 111.742Q1.45409 111.031 1.80918 110.352Q2.16426 109.673 2.58304 109.031Q3.00181 108.389 3.48039 107.791Q3.95897 107.192 4.49292 106.642Z" fill="#FFFFFF" fill-rule="evenodd" transform="translate(532 228)" />
    <path d="M14.9514 167.888L128.513 284.831Q129.067 285.402 129.676 285.914Q130.284 286.427 130.941 286.876Q131.598 287.325 132.296 287.707Q132.994 288.088 133.727 288.398Q134.46 288.708 135.22 288.943Q135.98 289.178 136.76 289.336Q137.54 289.494 138.331 289.574Q139.123 289.653 139.919 289.653L452.416 289.653Q453.211 289.653 454.003 289.574Q454.795 289.494 455.575 289.336Q456.354 289.178 457.114 288.943Q457.875 288.708 458.607 288.398Q459.34 288.088 460.038 287.707Q460.737 287.325 461.393 286.876Q462.05 286.427 462.658 285.914Q463.267 285.402 463.821 284.831L577.396 167.876Q577.719 167.543 578.022 167.192Q578.325 166.842 578.607 166.474Q578.889 166.106 579.149 165.722Q579.409 165.338 579.646 164.94Q579.884 164.542 580.098 164.131Q580.311 163.719 580.501 163.296Q580.69 162.873 580.855 162.44Q581.019 162.006 581.158 161.564Q581.297 161.122 581.41 160.672Q581.523 160.222 581.609 159.767Q581.696 159.311 581.756 158.852Q581.815 158.392 581.848 157.93Q581.881 157.467 581.887 157.004Q581.893 156.54 581.872 156.077Q581.851 155.614 581.803 155.153Q581.755 154.692 581.68 154.234Q581.605 153.777 581.504 153.324Q581.402 152.872 581.275 152.426Q581.147 151.981 580.994 151.543Q580.841 151.106 580.662 150.678Q580.484 150.25 580.281 149.833Q580.078 149.417 579.85 149.012Q579.623 148.608 579.373 148.218Q579.123 147.828 578.85 147.453Q578.578 147.078 578.284 146.719Q577.99 146.361 577.675 146.02Q577.361 145.679 577.028 145.357Q576.694 145.036 576.342 144.734Q575.99 144.432 575.621 144.151Q575.253 143.87 574.868 143.611Q574.483 143.352 574.084 143.116Q573.685 142.88 573.273 142.668L303.727 3.75006Q303.306 3.53355 302.874 3.34238Q302.442 3.15121 301.999 2.98605Q301.556 2.82089 301.105 2.68233Q300.653 2.54376 300.193 2.43228Q299.734 2.3208 299.269 2.23679Q298.804 2.15279 298.335 2.09656Q297.866 2.04033 297.394 2.01207Q296.922 1.98382 296.449 1.98363Q295.977 1.98345 295.505 2.01134Q295.033 2.03923 294.564 2.09509Q294.095 2.15095 293.63 2.23459Q293.164 2.31824 292.705 2.42936Q292.246 2.54048 291.794 2.6787Q291.342 2.81691 290.899 2.98172Q290.456 3.14654 290.024 3.33737Q289.591 3.52821 289.171 3.74438L19.0847 142.675Q18.6723 142.887 18.273 143.123Q17.8736 143.359 17.4887 143.617Q17.1038 143.876 16.7346 144.157Q16.3654 144.438 16.0132 144.739Q15.661 145.041 15.327 145.363Q14.993 145.685 14.6783 146.025Q14.3636 146.366 14.0693 146.724Q13.775 147.083 13.5021 147.458Q13.2292 147.833 12.9787 148.223Q12.7281 148.613 12.5007 149.018Q12.2733 149.422 12.0699 149.838Q11.8664 150.255 11.6876 150.683Q11.5088 151.111 11.3553 151.549Q11.2017 151.986 11.0739 152.432Q10.9461 152.878 10.8446 153.331Q10.743 153.783 10.6679 154.241Q10.5929 154.698 10.5447 155.16Q10.4965 155.621 10.4752 156.084Q10.454 156.547 10.4598 157.011Q10.4656 157.475 10.4984 157.938Q10.5312 158.4 10.5909 158.86Q10.6507 159.32 10.7371 159.776Q10.8235 160.231 10.9364 160.681Q11.0492 161.131 11.1881 161.574Q11.327 162.016 11.4914 162.45Q11.6559 162.883 11.8453 163.307Q12.0347 163.73 12.2485 164.141Q12.4623 164.553 12.6998 164.951Q12.9372 165.35 13.1974 165.734Q13.4577 166.118 13.7398 166.486Q14.022 166.854 14.3252 167.205Q14.6283 167.556 14.9514 167.888Z" fill="#FFFFFF" fill-rule="evenodd" transform="translate(24 0)" />
    <path d="M173.25 45.45C198.45 45.45 221.55 49.5 242.55 57.6C263.55 65.7 281.85 77.1 297.45 91.8C313.05 106.5 325.125 123.825 333.675 143.775C342.225 163.725 346.5 185.55 346.5 209.25C346.5 232.95 342.225 254.925 333.675 275.175C325.125 295.425 313.05 312.975 297.45 327.825C281.85 342.675 263.55 354.225 242.55 362.475C221.55 370.725 198.45 374.85 173.25 374.85C148.05 374.85 124.95 370.725 103.95 362.475C82.95 354.225 64.6499 342.675 49.05 327.825C33.45 312.975 21.375 295.5 12.825 275.4C4.2749 255.3 0 233.25 0 209.25C0 185.25 4.2749 163.275 12.825 143.325C21.375 123.375 33.45 106.125 49.05 91.575C64.6499 77.025 82.95 65.7 103.95 57.6C124.95 49.5 148.05 45.45 173.25 45.45L173.25 45.45ZM174.6 132.3C165.6 132.3 156.975 134.175 148.725 137.925C140.475 141.675 133.275 147.075 127.125 154.125C120.975 161.175 116.1 169.35 112.5 178.65C108.9 187.95 107.1 198.3 107.1 209.7C107.1 220.8 108.9 231.15 112.5 240.75C116.1 250.35 121.05 258.675 127.35 265.725C133.65 272.775 140.85 278.25 148.95 282.15C157.05 286.05 165.6 288 174.6 288C183.6 288 192 286.05 199.8 282.15C207.6 278.25 214.5 272.775 220.5 265.725C226.5 258.675 231.15 250.35 234.45 240.75C237.75 231.15 239.4 220.8 239.4 209.7C239.4 198.3 237.75 187.95 234.45 178.65C231.15 169.35 226.5 161.175 220.5 154.125C214.5 147.075 207.6 141.675 199.8 137.925C192 134.175 183.6 132.3 174.6 132.3L174.6 132.3ZM544.05 117.9C566.85 117.9 586.725 123.15 603.675 133.65C620.625 144.15 633.75 159 643.05 178.2C652.35 197.4 657 220.05 657 246.15C657 271.35 652.5 293.325 643.5 312.075C634.5 330.825 621.75 345.375 605.25 355.725C588.75 366.075 569.25 371.25 546.75 371.25C527.55 371.25 510.75 366.075 496.35 355.725C481.95 345.375 470.775 330.75 462.825 311.85C454.875 292.95 450.9 270.9 450.9 245.7C450.9 219.9 454.725 197.4 462.375 178.2C470.025 159 480.825 144.15 494.775 133.65C508.725 123.15 525.15 117.9 544.05 117.9L544.05 117.9ZM517.95 195.75C510.75 195.75 504.375 197.7 498.825 201.6C493.275 205.5 489 211.05 486 218.25C483 225.45 481.5 233.85 481.5 243.45C481.5 253.05 483 261.45 486 268.65C489 275.85 493.275 281.4 498.825 285.3C504.375 289.2 510.75 291.15 517.95 291.15C525.45 291.15 531.975 289.2 537.525 285.3C543.075 281.4 547.35 275.85 550.35 268.65C553.35 261.45 554.85 253.05 554.85 243.45C554.85 233.85 553.35 225.45 550.35 218.25C547.35 211.05 543.075 205.5 537.525 201.6C531.975 197.7 525.45 195.75 517.95 195.75L517.95 195.75ZM380.25 121.5L481.5 121.5L481.5 454.95L380.25 454.95L380.25 121.5ZM831.6 220.5C832.2 213.6 831.3 207.525 828.9 202.275C826.5 197.025 823.05 192.9 818.55 189.9C814.05 186.9 808.8 185.4 802.8 185.4C795.3 185.4 789 187.8 783.9 192.6C778.8 197.4 774.975 203.925 772.425 212.175C769.875 220.425 768.6 229.65 768.6 239.85C768.6 252.15 770.475 262.5 774.225 270.9C777.975 279.3 783.225 285.675 789.975 290.025C796.725 294.375 804.6 296.55 813.6 296.55C831.3 296.55 847.95 289.2 863.55 274.5L916.2 326.25C903.3 340.65 887.475 351.75 868.725 359.55C849.975 367.35 828.6 371.25 804.6 371.25C776.7 371.25 752.7 366.075 732.6 355.725C712.5 345.375 697.125 330.75 686.475 311.85C675.825 292.95 670.5 270.9 670.5 245.7C670.5 219.6 675.975 197.025 686.925 177.975C697.875 158.925 713.175 144.15 732.825 133.65C752.475 123.15 775.5 117.9 801.9 117.9C830.7 117.9 855.15 124.05 875.25 136.35C895.35 148.65 910.425 165.975 920.475 188.325C930.525 210.675 934.65 237 932.85 267.3L755.55 267.3L755.55 220.5L831.6 220.5ZM1127.7 239.85C1127.7 229.35 1125 221.1 1119.6 215.1C1114.2 209.1 1107.15 206.1 1098.45 206.1C1088.55 206.1 1080.67 209.7 1074.83 216.9C1068.98 224.1 1066.05 233.7 1066.05 245.7L1043.55 245.7C1043.55 219.6 1047.45 196.875 1055.25 177.525C1063.05 158.175 1074.23 143.25 1088.77 132.75C1103.33 122.25 1120.65 117 1140.75 117C1158.15 117 1173.45 120.825 1186.65 128.475C1199.85 136.125 1210.2 147 1217.7 161.1C1225.2 175.2 1228.95 191.7 1228.95 210.6L1228.95 367.65L1127.7 367.65L1127.7 239.85ZM964.8 121.5L1066.05 121.5L1066.05 367.65L964.8 367.65L964.8 121.5ZM1417.5 52.2C1458.6 52.2 1490.4 62.025 1512.9 81.675C1535.4 101.325 1546.65 129.15 1546.65 165.15C1546.65 203.25 1535.4 232.875 1512.9 254.025C1490.4 275.175 1458.6 285.75 1417.5 285.75L1328.4 285.75L1373.85 240.3L1373.85 367.65L1269.45 367.65L1269.45 52.2L1417.5 52.2ZM1412.1 206.55C1423.5 206.55 1432.27 203.175 1438.42 196.425C1444.58 189.675 1447.65 180.3 1447.65 168.3C1447.65 156.6 1444.58 147.525 1438.42 141.075C1432.27 134.625 1423.5 131.4 1412.1 131.4L1328.4 131.4L1373.85 85.95L1373.85 252L1328.4 206.55L1412.1 206.55ZM1756.8 208.35C1741.8 205.95 1728.6 206.1 1717.2 208.8C1705.8 211.5 1697.02 216.375 1690.88 223.425C1684.72 230.475 1681.65 239.4 1681.65 250.2L1659.15 245.7C1659.15 219.6 1663.2 196.875 1671.3 177.525C1679.4 158.175 1690.73 143.25 1705.27 132.75C1719.82 122.25 1737 117 1756.8 117L1756.8 208.35ZM1580.4 121.5L1681.65 121.5L1681.65 367.65L1580.4 367.65L1580.4 121.5ZM1907.1 117.9C1935.3 117.9 1959.83 123.075 1980.67 133.425C2001.52 143.775 2017.65 158.4 2029.05 177.3C2040.45 196.2 2046.15 218.55 2046.15 244.35C2046.15 269.85 2040.45 292.125 2029.05 311.175C2017.65 330.225 2001.52 345 1980.67 355.5C1959.83 366 1935.3 371.25 1907.1 371.25C1878.9 371.25 1854.38 366 1833.52 355.5C1812.67 345 1796.55 330.225 1785.15 311.175C1773.75 292.125 1768.05 269.85 1768.05 244.35C1768.05 218.55 1773.75 196.2 1785.15 177.3C1796.55 158.4 1812.67 143.775 1833.52 133.425C1854.38 123.075 1878.9 117.9 1907.1 117.9L1907.1 117.9ZM1907.1 198C1899.6 198 1893.08 199.95 1887.52 203.85C1881.98 207.75 1877.7 213.3 1874.7 220.5C1871.7 227.7 1870.2 236.1 1870.2 245.7C1870.2 255.3 1871.7 263.7 1874.7 270.9C1877.7 278.1 1881.98 283.65 1887.52 287.55C1893.08 291.45 1899.6 293.4 1907.1 293.4C1914.6 293.4 1921.13 291.45 1926.67 287.55C1932.22 283.65 1936.5 278.1 1939.5 270.9C1942.5 263.7 1944 255.3 1944 245.7C1944 236.1 1942.5 227.7 1939.5 220.5C1936.5 213.3 1932.22 207.75 1926.67 203.85C1921.13 199.95 1914.6 198 1907.1 198L1907.1 198ZM2091.15 112.95C2091.15 95.85 2095.35 81 2103.75 68.4C2112.15 55.8 2124 46.05 2139.3 39.15C2154.6 32.2501 2172.6 28.95 2193.3 29.25C2202.9 29.25 2212.65 30 2222.55 31.5C2232.45 33 2241.75 35.1 2250.45 37.8L2240.55 112.5C2235.75 111 2231.25 109.8 2227.05 108.9C2222.85 108 2218.95 107.55 2215.35 107.55C2210.55 107.25 2206.42 107.925 2202.97 109.575C2199.52 111.225 2196.83 113.625 2194.88 116.775C2192.92 119.925 2191.95 123.75 2191.95 128.25L2191.95 367.65L2091.15 367.65L2091.15 112.95ZM2057.4 135L2239.65 135L2239.65 198.9L2057.4 198.9L2057.4 135ZM2264.85 121.5L2366.1 121.5L2366.1 367.65L2264.85 367.65L2264.85 121.5ZM2315.7 0C2330.7 0 2343 4.79999 2352.6 14.4C2362.2 24.0001 2367 36.3 2367 51.3C2367 66.3 2362.2 78.6 2352.6 88.2C2343 97.8 2330.7 102.6 2315.7 102.6C2300.7 102.6 2288.4 97.8 2278.8 88.2C2269.2 78.6 2264.4 66.3 2264.4 51.3C2264.4 36.3 2269.2 24.0001 2278.8 14.4C2288.4 4.80005 2300.7 6.10352e-05 2315.7 0L2315.7 0ZM2417.85 33.75L2519.1 33.75L2519.1 367.65L2417.85 367.65L2417.85 33.75ZM2713.95 220.5C2714.55 213.6 2713.65 207.525 2711.25 202.275C2708.85 197.025 2705.4 192.9 2700.9 189.9C2696.4 186.9 2691.15 185.4 2685.15 185.4C2677.65 185.4 2671.35 187.8 2666.25 192.6C2661.15 197.4 2657.33 203.925 2654.77 212.175C2652.22 220.425 2650.95 229.65 2650.95 239.85C2650.95 252.15 2652.83 262.5 2656.58 270.9C2660.33 279.3 2665.58 285.675 2672.33 290.025C2679.08 294.375 2686.95 296.55 2695.95 296.55C2713.65 296.55 2730.3 289.2 2745.9 274.5L2798.55 326.25C2785.65 340.65 2769.82 351.75 2751.08 359.55C2732.33 367.35 2710.95 371.25 2686.95 371.25C2659.05 371.25 2635.05 366.075 2614.95 355.725C2594.85 345.375 2579.47 330.75 2568.83 311.85C2558.17 292.95 2552.85 270.9 2552.85 245.7C2552.85 219.6 2558.33 197.025 2569.27 177.975C2580.22 158.925 2595.52 144.15 2615.17 133.65C2634.83 123.15 2657.85 117.9 2684.25 117.9C2713.05 117.9 2737.5 124.05 2757.6 136.35C2777.7 148.65 2792.77 165.975 2802.83 188.325C2812.88 210.675 2817 237 2815.2 267.3L2637.9 267.3L2637.9 220.5L2713.95 220.5Z" fill="#FFFFFF" transform="translate(839 114)" />
    <path d="M0 0L27.4082 0L27.4082 5.42401L16.9438 5.42401L16.9438 33.6L10.4639 33.6L10.4639 5.42401L0 5.42401L0 0ZM31.9678 0L39.312 0L50.4482 22.032L61.4878 0L68.832 0L68.832 33.6L62.9282 33.6L62.9282 8.97601L52.4639 30.144L48.3359 30.144L37.8242 8.97601L37.8242 33.6L31.9678 33.6L31.9678 0Z" fill="#FFFFFF" transform="translate(3689 451)" />
  </g>
</svg>