<?xml version="1.0" encoding="utf-8"?>
<svg width="9" height="6" viewBox="0 0 9 6" fill="none" xmlns="http://www.w3.org/2000/svg">
  <g>
    <path d="M0 0L9 0L9 6L0 6L0 0Z" fill="#000000" fill-rule="evenodd" />
    <path d="M0.530179 2.47L0.510179 1.645L0.740179 1.645C0.910179 1.645 1.06518 1.63 1.20518 1.6C1.34518 1.57 1.45685 1.51167 1.54018 1.425C1.62351 1.34167 1.66518 1.215 1.66518 1.045C1.66518 0.885 1.61685 0.759167 1.52018 0.6675C1.42351 0.575833 1.29518 0.53 1.13518 0.53C0.968512 0.53 0.838512 0.575833 0.745179 0.6675C0.651845 0.759166 0.605179 0.883333 0.605179 1.04L0.000178576 1.04C-0.00315475 0.84 0.0401788 0.661666 0.130179 0.505C0.220179 0.348333 0.351845 0.225 0.525179 0.135C0.611845 0.0883332 0.706012 0.0541667 0.807679 0.0324998C0.909346 0.0108333 1.02018 0 1.14018 0C1.36351 0 1.56101 0.0408332 1.73268 0.1225C1.90435 0.204167 2.04018 0.323333 2.14018 0.48C2.18685 0.556666 2.22268 0.6425 2.24768 0.7375C2.27268 0.8325 2.28518 0.936666 2.28518 1.05C2.28518 1.28 2.23518 1.47 2.13518 1.62C2.03518 1.77 1.89685 1.88167 1.72018 1.955C1.63351 1.99167 1.53935 2.01917 1.43768 2.0375C1.33601 2.05583 1.22685 2.06667 1.11018 2.07L1.09518 2.47L0.530179 2.47ZM0.900178 3.79C0.759616 3.79 0.641143 3.7408 0.544757 3.64241C0.448371 3.54402 0.400179 3.42655 0.400179 3.29C0.400179 3.14944 0.448371 3.03096 0.544757 2.93458C0.641143 2.83819 0.759616 2.79 0.900178 2.79C1.04074 2.79 1.15921 2.83819 1.2556 2.93458C1.35199 3.03096 1.40018 3.14944 1.40018 3.29C1.40018 3.42655 1.35199 3.54402 1.2556 3.64241C1.15921 3.7408 1.04074 3.79 0.900178 3.79L0.900178 3.79Z" fill="#FFFFFF" transform="translate(3.362 1.145)" />
  </g>
</svg>