<?xml version="1.0" encoding="utf-8"?>
<svg width="512" height="512" viewBox="0 0 512 512" fill="none" xmlns="http://www.w3.org/2000/svg">
  <g>
    <rect width="512" height="512" fill="#EFBE0B" fill-rule="evenodd" />
    <path d="M192 0C298.053 0 384 85.9469 384 192L384 448L0 448L0 192C0 85.9469 85.9469 0 192 0Z" fill="#CE1616" transform="translate(64 64)" />
    <path d="M0 119L10.6051 53.9677C10.6051 53.9677 16.6938 0 136.474 0C256.254 0 257.205 53.9677 257.205 53.9677L268 119L0 119Z" fill="#111111" fill-rule="evenodd" transform="translate(122 393)" />
    <path d="M40 0C62.0944 0 80 17.9056 80 40L80 70C80 92.0944 62.0944 110 40 110L40 110C17.9056 110 0 92.0944 0 70L0 40C0 17.9056 17.9056 0 40 0Z" fill="#F2C4AD" transform="translate(216 338)" />
    <path d="M0 137C0 61.337 61.337 0 137 0C212.663 0 274 61.337 274 137C274 212.663 212.663 274 137 274C61.337 274 0 212.663 0 137Z" fill="#F2C4AD" fill-rule="evenodd" transform="translate(119 119)" />
    <path d="M44 0C49.5236 0 54 4.47641 54 10L54 10C54 15.5236 49.5236 20 44 20L10 20C4.47639 20 0 15.5236 0 10L0 10C0 4.47641 4.47639 0 10 0L44 0Z" fill="#111111" transform="translate(229 328)" />
    <path d="M35 0C45.4948 0 54 8.50516 54 19L54 27C54 37.4948 45.4948 46 35 46C24.5052 46 16 37.4948 16 27L16 19C16 18.6646 16.0087 18.3312 16.0258 18L9 18C4.02876 18 0 13.9712 0 9C0 4.02876 4.02876 0 9 0L35 0Z" fill="#111111" fill-rule="evenodd" transform="translate(157 237)" />
    <path d="M19 0L45 0C49.9713 0 54 4.02876 54 9C54 13.9712 49.9713 18 45 18L37.9742 18C37.9913 18.3312 38 18.6646 38 19L38 27C38 37.4948 29.4948 46 19 46C8.50516 46 0 37.4948 0 27L0 19C0 8.50516 8.50516 0 19 0Z" fill="#111111" fill-rule="evenodd" transform="translate(301 237)" />
    <path d="M13.882 148.177L153.635 109.681Q153.885 109.612 154.14 109.56Q154.395 109.508 154.652 109.472Q154.91 109.437 155.169 109.418Q155.428 109.399 155.688 109.398Q155.948 109.397 156.208 109.412Q156.467 109.428 156.725 109.461Q156.983 109.493 157.238 109.543Q157.494 109.592 157.745 109.659Q157.996 109.725 158.243 109.808Q158.489 109.89 158.73 109.989Q158.97 110.088 159.204 110.202Q159.438 110.316 159.663 110.445Q159.889 110.575 160.105 110.719Q160.322 110.863 160.528 111.021Q160.735 111.178 160.93 111.35Q161.126 111.521 161.31 111.704Q161.494 111.888 161.666 112.083Q161.837 112.278 161.996 112.485Q162.154 112.691 162.299 112.907Q162.443 113.123 162.573 113.348Q162.703 113.573 162.818 113.807Q162.933 114.04 163.032 114.28Q163.131 114.52 163.215 114.767Q163.298 115.013 163.365 115.264Q163.432 115.515 163.482 115.771Q163.532 116.026 163.566 116.283Q163.599 116.541 163.615 116.801Q163.631 117.06 163.631 117.32Q163.63 117.58 163.612 117.84Q163.594 118.099 163.559 118.357Q163.524 118.614 163.473 118.869Q163.421 119.124 163.352 119.375L153.312 156.19Q153.239 156.457 153.185 156.729Q153.131 157 153.096 157.275Q153.061 157.55 153.046 157.826Q153.03 158.103 153.034 158.38Q153.038 158.657 153.062 158.933Q153.085 159.209 153.127 159.483Q153.17 159.756 153.232 160.026Q153.293 160.296 153.374 160.561Q153.454 160.826 153.553 161.085Q153.652 161.344 153.768 161.595Q153.885 161.846 154.019 162.089Q154.153 162.331 154.304 162.564Q154.454 162.796 154.621 163.017Q154.787 163.239 154.969 163.448Q155.151 163.657 155.346 163.853Q155.542 164.048 155.751 164.23Q155.96 164.412 156.182 164.578Q156.403 164.745 156.635 164.896Q156.868 165.046 157.11 165.18Q157.353 165.314 157.604 165.431Q157.855 165.548 158.114 165.647Q158.372 165.745 158.638 165.826Q158.903 165.906 159.173 165.968Q159.443 166.03 159.716 166.072Q159.99 166.115 160.266 166.138Q160.542 166.162 160.819 166.166Q161.096 166.17 161.372 166.154Q161.649 166.139 161.924 166.104Q162.198 166.069 162.47 166.015Q162.742 165.961 163.009 165.889Q163.276 165.816 163.538 165.724Q163.799 165.633 164.054 165.523L309.437 102.975Q309.666 102.876 309.889 102.763Q310.111 102.65 310.326 102.524Q310.541 102.397 310.748 102.257Q310.954 102.117 311.151 101.964Q311.349 101.812 311.536 101.647Q311.723 101.482 311.9 101.305Q312.076 101.129 312.241 100.942Q312.406 100.755 312.559 100.558Q312.712 100.36 312.852 100.154Q312.992 99.9475 313.118 99.7326Q313.245 99.5177 313.358 99.2953Q313.471 99.0728 313.57 98.8437Q313.669 98.6146 313.753 98.3797Q313.837 98.1448 313.906 97.905Q313.975 97.6653 314.028 97.4217Q314.082 97.178 314.12 96.9315Q314.159 96.685 314.181 96.4365Q314.204 96.1881 314.211 95.9387Q314.218 95.6893 314.209 95.44Q314.2 95.1907 314.176 94.9424Q314.151 94.6941 314.111 94.4479Q314.071 94.2017 314.015 93.9585Q313.96 93.7153 313.889 93.4761Q313.818 93.2368 313.732 93.0026Q313.646 92.7683 313.546 92.54Q313.445 92.3116 313.331 92.09Q313.216 91.8684 313.088 91.6545Q312.959 91.4406 312.818 91.2352Q312.676 91.0298 312.522 90.8338Q312.368 90.6378 312.201 90.4519Q312.035 90.266 311.857 90.0909Q311.679 89.9159 311.491 89.7524L211.041 2.63119Q210.69 2.32656 210.305 2.06524Q209.921 1.80392 209.508 1.58953Q209.096 1.37513 208.661 1.21061Q208.226 1.0461 207.775 0.933733Q207.324 0.82137 206.863 0.762712Q206.401 0.704055 205.936 0.699913Q205.471 0.695771 205.009 0.746202Q204.547 0.796633 204.094 0.90094L38.9238 38.9262Q38.6721 38.9841 38.4248 39.0584Q38.1774 39.1327 37.9354 39.2229Q37.6934 39.3132 37.4579 39.4191Q37.2223 39.5249 36.9942 39.646Q36.766 39.767 36.5463 39.9027Q36.3265 40.0384 36.1161 40.1881Q35.9057 40.3378 35.7055 40.501Q35.5053 40.6642 35.3162 40.8401Q35.1271 41.016 34.9499 41.2039Q34.7727 41.3917 34.6082 41.5908Q34.4436 41.7898 34.2924 41.9992Q34.1412 42.2086 34.004 42.4274Q33.8668 42.6462 33.7442 42.8735Q33.6216 43.1008 33.5141 43.3356Q33.4066 43.5704 33.3147 43.8118Q33.2228 44.0531 33.1468 44.3L4.23551 138.238Q4.15786 138.491 4.09723 138.748Q4.0366 139.005 3.99326 139.265Q3.94992 139.525 3.92406 139.788Q3.8982 140.051 3.88994 140.315Q3.88168 140.578 3.89105 140.842Q3.90043 141.106 3.92739 141.369Q3.95436 141.631 3.9988 141.891Q4.04324 142.152 4.10495 142.408Q4.16667 142.665 4.24538 142.917Q4.32409 143.169 4.41945 143.415Q4.51481 143.661 4.62639 143.9Q4.73797 144.14 4.86528 144.371Q4.99258 144.602 5.13504 144.824Q5.2775 145.047 5.43449 145.259Q5.59147 145.471 5.76227 145.672Q5.93307 145.874 6.11693 146.063Q6.30078 146.252 6.49688 146.429Q6.69297 146.606 6.90043 146.769Q7.10788 146.932 7.32577 147.081Q7.54366 147.23 7.77102 147.364Q7.99837 147.499 8.23418 147.617Q8.46998 147.736 8.71318 147.839Q8.95638 147.941 9.20589 148.027Q9.4554 148.114 9.71011 148.183Q9.96481 148.252 10.2236 148.304Q10.4823 148.357 10.744 148.391Q11.0057 148.426 11.2691 148.443Q11.5325 148.461 11.7965 148.46Q12.0605 148.46 12.3238 148.442Q12.5872 148.424 12.8487 148.388Q13.1103 148.353 13.3689 148.3Q13.6275 148.247 13.882 148.177Z" fill="#CE1616" fill-rule="evenodd" transform="translate(89 84)" />
    <path d="M268.2 28.1629C287.663 44.8917 303.735 65.455 315.244 88.6817C313.877 88.8275 312.477 88.973 311.046 89.1184C287.19 91.5419 263.263 92.8142 239.264 92.9352C230.428 92.9798 222.87 89.8937 216.59 83.6769C210.31 77.4601 207.148 69.9335 207.103 61.097C207.103 60.969 207.103 60.841 207.104 60.713C207.105 60.585 207.106 60.457 207.109 60.329C207.187 56.2192 208.025 52.271 209.625 48.4844C211.224 44.6978 213.47 41.3439 216.362 38.4226C217.03 37.7475 217.727 37.1033 218.453 36.4902C219.179 35.8772 219.93 35.2975 220.708 34.7514C223.379 32.8748 226.27 31.4406 229.38 30.4486C232.49 29.4567 235.677 28.9525 238.942 28.9361Q253.591 28.8622 268.2 28.1629ZM61.4589 0Q108.048 15.5335 148.459 22.2687C152.724 22.9794 157.059 23.634 161.465 24.2325C162.694 24.3993 163.908 24.6368 165.109 24.9448C166.31 25.2529 167.489 25.6294 168.646 26.0745C175.397 28.6711 180.662 33.0526 184.442 39.2193Q190.111 48.4692 188.986 59.2598C188.969 59.4248 188.95 59.5897 188.93 59.7544C188.911 59.9192 188.89 60.0837 188.867 60.2481Q187.083 73.3824 176.535 81.4082C169.502 86.7588 161.608 88.8395 152.852 87.6502Q145.286 86.6226 137.938 85.3979Q74.8476 74.8829 0 45.8128C17.1045 26.7051 37.9805 11.0444 61.4589 0Z" fill="#E54444" fill-rule="evenodd" transform="translate(112.896 82.169)" />
  </g>
</svg>